<svg id="Capa_1" data-name="Capa 1" xmlns="http://www.w3.org/2000/svg" xmlns:xlink="http://www.w3.org/1999/xlink" viewBox="0 0 1920 1080"><defs><style>.cls-1{fill:none;}.cls-2{clip-path:url(#clip-path);}.cls-3{fill:#fff;}.cls-4{fill:#1d2b1e;}.cls-5{fill:#5c3826;}.cls-6{fill:#2b388c;}.cls-7{fill:#ba1f2e;}.cls-8{fill:#eb1c24;}.cls-9{fill:#262161;}.cls-10{fill:#bfb299;}.cls-11{fill:#968c7d;}.cls-12{fill:#8fba1c;}.cls-13{fill:#548038;}.cls-14{fill:#b07338;}.cls-15{fill:#ba9470;}.cls-16{fill:#b59475;}</style><clipPath id="clip-path"><rect class="cls-1" width="1920" height="1080"/></clipPath></defs><g class="cls-2"><g class="cls-2"><rect class="cls-3" x="972.5" y="25.14" width="922.5" height="503" rx="20"/><rect class="cls-4" x="25" y="552.14" width="1870" height="503" rx="20"/><rect class="cls-5" x="25" y="25.14" width="922.5" height="503" rx="20"/><path class="cls-6" d="M1489,246.71c-.39.46-.79.92-1.22,1.38s-1,1-1.56,1.56q-.45.43-.93.84c-.5.45-1,.88-1.56,1.31-1,.83-2.16,1.63-3.34,2.4a52,52,0,0,1-5.31,3.07,77.43,77.43,0,0,1-17.34,6.18,45.65,45.65,0,0,0,14.22,5.07,24.4,24.4,0,0,0,3.64.31,56.75,56.75,0,0,0,5.54-5.42,52.16,52.16,0,0,0,3.63-4.53c.38-.53.75-1.07,1.12-1.61l.54-.85c.12-.17.23-.35.34-.52.7-1.13,1.36-2.29,2-3.47.25-.48.5-1,.73-1.47a49.62,49.62,0,0,0,2.42-6c.22-.69.44-1.38.63-2.07.39-1.41.73-2.83,1-4.27a20.89,20.89,0,0,1-1.9,4.36,27.42,27.42,0,0,1-2.61,3.74"/><path class="cls-3" d="M1380.56,237.3c.63.54,1.29,1.06,2,1.57l1,.7c.13.09.26.19.39.27l.64.42c.66.43,1.35.85,2.06,1.26,1,.6,2.14,1.17,3.28,1.74,1.48.71,3,1.4,4.67,2.05a92.52,92.52,0,0,0,17.82,4.89c1.65.29,3.34.55,5.06.77q2.28.3,4.62.51c.73.07,1.46.13,2.2.18V247.2h-.09l-.87-1.1c-2.57-3.25-4.93-6.56-7.06-9.86a108.46,108.46,0,0,1-9-16.95c-.6-1.44-1.15-2.85-1.65-4.26s-.86-2.53-1.23-3.77-.78-2.74-1.09-4.08c-.09-.38-.17-.75-.25-1.13,0-.21-.09-.43-.13-.64a50.74,50.74,0,0,1-.79-5.32A38,38,0,0,1,1402,196c-.41-.29-.8-.58-1.17-.88a16.55,16.55,0,0,1-1.55-1.42c-.32-.34-.62-.68-.89-1s-.34-.46-.5-.69a30.89,30.89,0,0,0-.5,7.22,44.74,44.74,0,0,0,.65,6c.29,1.67.66,3.38,1.13,5.13l.09.34c.12.46.25.91.38,1.37.37,1.27.78,2.55,1.24,3.86s.92,2.51,1.44,3.79q.88,2.21,1.93,4.44a119.21,119.21,0,0,0,13.9,22.48c-1.58-.19-3.13-.42-4.66-.67a119.55,119.55,0,0,1-11.39-18c-.79-1.53-1.51-3.05-2.18-4.56-.58-1.27-1.11-2.54-1.6-3.79s-.94-2.47-1.36-3.68c-.17-.51-.34-1-.5-1.51,0,0,0-.09,0-.12q-.8-2.53-1.38-5a54.36,54.36,0,0,1-1-5.66,34.91,34.91,0,0,1,.09-10.55,19.46,19.46,0,0,1,2-5.89,57.81,57.81,0,0,0-8.3,7.09,38.15,38.15,0,0,0,.25,7.24,55.65,55.65,0,0,0,1.68,8.31q.69,2.49,1.6,5.07.77,2.17,1.7,4.41l.07.16c.21.51.42,1,.65,1.51.48,1.1,1,2.21,1.54,3.33s1.21,2.44,1.87,3.66c.8,1.52,1.66,3,2.58,4.57a123.43,123.43,0,0,0,8.43,12.39,88,88,0,0,1-12.19-3.54q-2.37-.89-4.52-1.86-1.71-.78-3.27-1.62c-.77-.4-1.51-.82-2.22-1.24l-1.07-.66-.83-.54c-.52-.35-1-.7-1.51-1.06l-.73-.55a31.6,31.6,0,0,1-3-2.58,19.36,19.36,0,0,1-5.34-8.56c-.14,1-.25,1.95-.33,2.93a17.56,17.56,0,0,0,4.58,8.93,26.9,26.9,0,0,0,2.86,2.76"/><path class="cls-6" d="M1402.91,205.4c0,.21.08.43.13.64.08.38.16.75.25,1.13.31,1.34.67,2.7,1.09,4.08s.77,2.5,1.23,3.77,1.05,2.82,1.65,4.26a108.46,108.46,0,0,0,9,16.95c2.13,3.3,4.49,6.61,7.06,9.86l.87,1.1h.09V202.91c-1.27-.13-2.5-.29-3.7-.47s-2.42-.4-3.58-.64-2.35-.51-3.47-.81c-1.36-.36-2.66-.76-3.88-1.2l-.6-.21-.84-.32c-.62-.25-1.22-.5-1.8-.76s-1.39-.66-2-1-1.22-.7-1.79-1.06L1402,196a37.9,37.9,0,0,0,.16,4.07,50.74,50.74,0,0,0,.79,5.32"/><path class="cls-7" d="M1408.27,268.79a38.4,38.4,0,0,1-12.27,3.39q2.05,1.47,4.27,2.77a42.58,42.58,0,0,0,12.28-3.91c-1.47-.69-2.89-1.44-4.28-2.25"/><path class="cls-7" d="M1428,283.65c1.85.15,3.72.23,5.6.23s3.76-.08,5.61-.23v-6.57A65.44,65.44,0,0,1,1428,276Z"/><path class="cls-8" d="M1433.64,156.89a9.07,9.07,0,0,0-2.57.36,8.56,8.56,0,0,0-4.65,7.62,7.62,7.62,0,0,0,.08,1.08,8.5,8.5,0,0,0,.15.88,8.78,8.78,0,0,0,1.22,2.82c.07.09.13.19.21.28s.36.47.56.7.33.34.5.5a8.59,8.59,0,0,0,1.36,1,8.23,8.23,0,0,0,2.92,1.13l.39.06a8.11,8.11,0,0,0,2.41,0c.13,0,.26,0,.38-.06a8.31,8.31,0,0,0,4.09-2,1,1,0,0,0,.19-.16c.17-.16.34-.33.5-.51s.39-.45.56-.69l.21-.28c.17-.26.33-.54.47-.81s.09-.31.13-.47c.07-.31.13-.63.17-1a9.11,9.11,0,0,0,.08-1.18,9.35,9.35,0,0,0-9.36-9.35"/><path class="cls-7" d="M1441.94,169.93c-.17.24-.36.46-.56.69s-.33.35-.5.51a1,1,0,0,1-.19.16,8.31,8.31,0,0,1-4.09,2c-.12,0-.25,0-.38.06a8.11,8.11,0,0,1-2.41,0l-.39-.06a8.23,8.23,0,0,1-2.92-1.13,8.59,8.59,0,0,1-1.36-1c-.17-.16-.34-.33-.5-.5s-.39-.46-.56-.7-.14-.19-.21-.28a8.55,8.55,0,0,1-1.21-2.82,6.49,6.49,0,0,1-.16-.88,7.62,7.62,0,0,1-.08-1.08,8.56,8.56,0,0,1,4.65-7.62,9.34,9.34,0,0,0-6.78,9,9.82,9.82,0,0,0,.25,2.13,9,9,0,0,0,1.33,3.07c.07.1.14.21.22.31.19.26.4.51.61.76s.36.38.54.55a9.33,9.33,0,0,0,4.67,2.36l.43.07a8.57,8.57,0,0,0,2.61,0l.43-.07a9.19,9.19,0,0,0,4.45-2.18c.07-.05.14-.12.21-.18s.37-.37.54-.56a7.14,7.14,0,0,0,.61-.75l.23-.31a8.93,8.93,0,0,0,1.2-2.6c-.14.27-.3.55-.47.81l-.21.28"/><path class="cls-9" d="M1402.05,276c.82.46,1.67.89,2.52,1.31,1.17.57,2.36,1.11,3.58,1.61l.88.36c.51.21,1,.41,1.55.6a66.14,66.14,0,0,0,13.71,3.41v-8a62.11,62.11,0,0,1-10.07-3.41,44.45,44.45,0,0,1-12.17,4.15"/><path class="cls-6" d="M1382.49,234.37c.49.36,1,.71,1.51,1.06l.83.54,1.07.66c.71.42,1.45.84,2.22,1.24q1.56.84,3.27,1.62,2.14,1,4.52,1.86a88,88,0,0,0,12.19,3.54,123.43,123.43,0,0,1-8.43-12.39c-.92-1.52-1.78-3.05-2.58-4.57-.66-1.22-1.29-2.45-1.87-3.66s-1.06-2.23-1.54-3.33c-.23-.5-.44-1-.65-1.51l-.07-.16q-.93-2.24-1.7-4.41-.91-2.58-1.6-5.07a55.65,55.65,0,0,1-1.68-8.31,47,47,0,0,0-5.49,32.89"/><path class="cls-3" d="M1414,260.9a81.75,81.75,0,0,1-21.37-6.92c-.67-.34-1.33-.68-2-1-1.07-.58-2.09-1.18-3.08-1.81-1.15-.72-2.24-1.48-3.27-2.27-.59-.45-1.16-.9-1.71-1.36l-.94-.82c-.47-.43-.93-.86-1.36-1.3s-1-1-1.44-1.54a27.38,27.38,0,0,1-2.64-3.52,20.09,20.09,0,0,1-3.21-9.84,47.37,47.37,0,0,0,.81,8.13,21.2,21.2,0,0,0,1.9,4.37,26.39,26.39,0,0,0,2.61,3.72c.38.47.79.93,1.21,1.39s1,1,1.57,1.57c.3.28.6.56.92.84.5.44,1,.87,1.56,1.3,1,.84,2.17,1.63,3.34,2.4a55.34,55.34,0,0,0,5.32,3.08c1.06.54,2.16,1.05,3.28,1.55a81.33,81.33,0,0,0,14.06,4.62,57.71,57.71,0,0,1-5.59,2.61,34.45,34.45,0,0,1-12.27,2.77c.8.69,1.62,1.36,2.47,2,.6.47,1.21.91,1.84,1.35a38.4,38.4,0,0,0,12.27-3.39,64.52,64.52,0,0,0,7.69-4.06c2,.33,4,.6,6,.82a73.27,73.27,0,0,1-9.45,5.49,42.58,42.58,0,0,1-12.28,3.91c.58.35,1.18.68,1.78,1a44.12,44.12,0,0,0,12.17-4.15,75.88,75.88,0,0,0,10-6h.06v-3.49c-1.34-.11-2.67-.25-4-.41-2.16-.26-4.28-.59-6.35-1"/><path class="cls-6" d="M1477.63,209.79c-.46,1.66-1,3.35-1.61,5.07-.53,1.51-1.11,3-1.76,4.57-.21.51-.42,1-.65,1.52a116.43,116.43,0,0,1-14.42,23.94,87.2,87.2,0,0,0,12.19-3.54q2.36-.89,4.52-1.87c1.14-.51,2.23-1,3.27-1.6.76-.41,1.5-.83,2.21-1.25l1.07-.66.83-.54c.78-.52,1.53-1.06,2.24-1.61a31.6,31.6,0,0,0,3-2.58,19.5,19.5,0,0,0,5.34-8.54,49.22,49.22,0,0,0-6-17.39,54.07,54.07,0,0,0-5.62-8.11l-.81-.94c-.6-.68-1.22-1.36-1.88-2a47.44,47.44,0,0,1-1.92,15.55"/><path class="cls-10" d="M1386.19,191.2c-.94.94-1.85,1.91-2.73,2.9q-1.56,1.78-3,3.69a18.33,18.33,0,0,0-2.63-5.38l0,0a9.94,9.94,0,0,0-6.66-4.53,9.61,9.61,0,0,0-1.79-.17,10,10,0,0,0-3.87.78l-.35.17a9.48,9.48,0,0,0-2,1.24.48.48,0,0,0-.11.09c-4.33,3.37-7.63,10.14-8.46,17.92a33.68,33.68,0,0,0-.2,3.78c0,9.48,3.59,18.14,9.14,22.07a32,32,0,0,0,6.76,3.62,49.85,49.85,0,0,0,1.67,7.42c-6.09-2.46-8.64-4.68-8.64-4.68-7.43-5.26-12.53-16.1-12.53-28.62,0-12,4.65-22.38,11.55-27.88l0,0a20.32,20.32,0,0,1,4.38-2.67l.3-.12.17-.07a13.69,13.69,0,0,1,19,10.49"/><path class="cls-11" d="M1372,244.77c.2.68.41,1.35.65,2-9.77-3.07-13.72-6.5-13.72-6.5-7.43-5.26-12.53-16.1-12.53-28.62,0-11.95,4.66-22.38,11.55-27.88l0,0a20.14,20.14,0,0,1,4.39-2.67l.3-.12.16-.07a18,18,0,0,1,6.13-1.24h.46q.73,0,1.44.06a17.9,17.9,0,0,0-3.6,1l-.16.07-.31.12a19.93,19.93,0,0,0-4.38,2.67,0,0,0,0,0,0,0c-6.89,5.5-11.55,15.92-11.55,27.88,0,12.52,5.1,23.36,12.53,28.62,0,0,2.55,2.22,8.64,4.68"/><path class="cls-6" d="M1444,246.09q3.9-4.93,7.13-10c6.46-10,10.85-20.07,12.91-28.94.14-.6.26-1.19.38-1.78a48.14,48.14,0,0,0,.78-5.32,38.16,38.16,0,0,0,.17-4.08l-.64.43c-.56.36-1.16.72-1.79,1.06s-1.32.69-2,1-1.18.52-1.8.77l-.84.32-.6.22c-1.23.43-2.53.83-3.89,1.19-1.12.3-2.27.57-3.47.81s-2.35.45-3.58.64-2.43.34-3.69.47V247.2h.09l.87-1.1"/><path class="cls-3" d="M1488.47,243.84c-.46.52-.94,1-1.45,1.55s-.88.86-1.35,1.28c-.3.28-.62.56-1,.83-.54.46-1.11.92-1.7,1.36-1,.79-2.12,1.54-3.27,2.27a51.77,51.77,0,0,1-5,2.84,81.5,81.5,0,0,1-21.37,6.93c-2.07.38-4.19.71-6.35,1-1.31.16-2.64.3-4,.41v3.49h.06a66.47,66.47,0,0,0,15.81,8.51,37.75,37.75,0,0,0,6.38,1.68c.6-.32,1.19-.65,1.78-1a34.53,34.53,0,0,1-6-1.39,62.56,62.56,0,0,1-15.76-8q3.08-.33,6-.82a54.23,54.23,0,0,0,15.14,6.65,30,30,0,0,0,4.83.8c.62-.43,1.23-.88,1.83-1.34.84-.65,1.67-1.31,2.47-2a24.29,24.29,0,0,1-3.64-.31,45.4,45.4,0,0,1-14.22-5.07,77.43,77.43,0,0,0,17.34-6.18,52,52,0,0,0,5.31-3.07c1.18-.77,2.3-1.57,3.34-2.4.54-.43,1.06-.86,1.56-1.31q.48-.41.93-.84.83-.77,1.56-1.56c.43-.46.83-.92,1.22-1.38a27.42,27.42,0,0,0,2.61-3.74,20.89,20.89,0,0,0,1.9-4.36,48.48,48.48,0,0,0,.81-8.12,20.12,20.12,0,0,1-3.21,9.82,27.7,27.7,0,0,1-2.64,3.53"/><path class="cls-7" d="M1378.82,243.84c.46.52.94,1,1.44,1.55s.89.86,1.36,1.29l.94.82c.55.46,1.12.92,1.71,1.36,1,.79,2.12,1.55,3.27,2.27,1,.63,2,1.23,3.08,1.8a48.63,48.63,0,0,1-6.68-13.09,4.56,4.56,0,0,1-.39-.27l-1-.7c-.7-.51-1.36-1-2-1.57a27.88,27.88,0,0,1-2.86-2.76,17.56,17.56,0,0,1-4.58-8.93c-.11,1.35-.17,2.7-.17,4.07,0,.27,0,.54,0,.8a20.09,20.09,0,0,0,3.21,9.84,26.48,26.48,0,0,0,2.64,3.52"/><path class="cls-9" d="M1395.49,258.83c-1.12-.5-2.22-1-3.28-1.55a55.34,55.34,0,0,1-5.32-3.08c-1.17-.77-2.29-1.57-3.34-2.4-.54-.43-1.06-.86-1.56-1.3-.32-.28-.62-.56-.92-.84-.55-.52-1.07-1-1.57-1.57s-.83-.92-1.21-1.39a26.39,26.39,0,0,1-2.61-3.72,21.2,21.2,0,0,1-1.9-4.37.17.17,0,0,0,0,.07,45.88,45.88,0,0,0,1.61,6.28c.32,1,.68,2,1.06,2.93s.87,2.07,1.36,3.07c.23.5.48,1,.73,1.46.61,1.19,1.26,2.35,2,3.48.29.46.57.91.87,1.37s.74,1.09,1.13,1.62a52,52,0,0,0,3.63,4.52,53.55,53.55,0,0,0,5.54,5.42,34.45,34.45,0,0,0,12.27-2.77,56.2,56.2,0,0,1-8.47-7.23"/><path class="cls-6" d="M1414.22,271.8a62.11,62.11,0,0,0,10.07,3.41v-9.44h-.06a75.88,75.88,0,0,1-10,6"/><path class="cls-8" d="M1451.33,264.73q-3,.5-6,.82a62.56,62.56,0,0,0,15.76,8,34.53,34.53,0,0,0,6,1.39c1.47-.86,2.89-1.79,4.27-2.77a30,30,0,0,1-4.83-.8,54.23,54.23,0,0,1-15.14-6.65"/><path class="cls-6" d="M1409.55,263.45a80.49,80.49,0,0,1-14.06-4.62,56.2,56.2,0,0,0,8.47,7.23,57.71,57.71,0,0,0,5.59-2.61"/><path class="cls-9" d="M1381.76,233.83l.73.54a47,47,0,0,1,5.49-32.89,38.15,38.15,0,0,1-.25-7.24l-.58.6a52.44,52.44,0,0,0-11.83,19.78,49.67,49.67,0,0,0-1.87,8.06,19.36,19.36,0,0,0,5.34,8.56,33.2,33.2,0,0,0,3,2.59"/><path class="cls-9" d="M1443,277v6.23a66.2,66.2,0,0,0,13.7-3.41c.52-.19,1-.39,1.55-.6h0l.89-.35c1.22-.51,2.41-1.05,3.58-1.62.85-.42,1.7-.85,2.53-1.31a38,38,0,0,1-6.38-1.68A64.45,64.45,0,0,1,1443,277"/><path class="cls-8" d="M1394,203.59a55,55,0,0,0,1,5.67q.59,2.42,1.38,5s0,.08,0,.12c.16.5.33,1,.51,1.51.41,1.21.86,2.44,1.35,3.68s1,2.52,1.6,3.79q1,2.26,2.18,4.56a119.55,119.55,0,0,0,11.39,18c1.53.25,3.08.48,4.66.67a119.21,119.21,0,0,1-13.9-22.48q-1.05-2.24-1.93-4.44c-.52-1.28-1-2.54-1.44-3.79s-.87-2.59-1.24-3.86c-.13-.46-.26-.91-.38-1.37l-.09-.34c-.47-1.75-.84-3.46-1.13-5.13a44.74,44.74,0,0,1-.65-6,30.89,30.89,0,0,1,.5-7.22,9.47,9.47,0,0,1-1-1.9,7.81,7.81,0,0,1-.53-2.83c0-.11,0-.23,0-.35l-.33.24a19.46,19.46,0,0,0-2,5.89,34.91,34.91,0,0,0-.09,10.55"/><path class="cls-3" d="M1449.82,251c1.72-.21,3.4-.48,5.06-.76a93.44,93.44,0,0,0,17.82-4.9c1.63-.65,3.19-1.34,4.66-2.06,1.15-.55,2.24-1.13,3.28-1.74.72-.41,1.4-.82,2.07-1.25.35-.23.69-.45,1-.69s.67-.47,1-.7c.7-.51,1.36-1,2-1.57a28.08,28.08,0,0,0,2.87-2.77,17.4,17.4,0,0,0,4.57-8.92h0c-.07-1-.19-2-.33-2.91a19.5,19.5,0,0,1-5.34,8.54,31.6,31.6,0,0,1-3,2.58c-.71.55-1.45,1.09-2.24,1.61l-.83.54-1.07.66c-.71.42-1.45.84-2.21,1.25-1,.55-2.13,1.09-3.27,1.6q-2.16,1-4.52,1.87a87.45,87.45,0,0,1-12.18,3.54A116.81,116.81,0,0,0,1473.61,221c.23-.51.44-1,.65-1.52q1-2.31,1.76-4.57c.62-1.72,1.15-3.41,1.61-5.07a47.47,47.47,0,0,0,1.92-15.55,57.72,57.72,0,0,0-8.29-7.09c2.26,4.22,2.9,9.89,2.06,16.44a54.47,54.47,0,0,1-1,5.66q-.57,2.43-1.37,5c-.18.54-.36,1.09-.55,1.64a109.74,109.74,0,0,1-16.51,30.06c-1.53.26-3.09.49-4.67.68,9-11.63,15.37-23.8,18.51-34.57.17-.57.32-1.13.47-1.7q.71-2.64,1.12-5.14a43.28,43.28,0,0,0,.65-6,30.42,30.42,0,0,0-.51-7.22c-.15.23-.31.46-.48.68a10.8,10.8,0,0,1-.9,1,15.15,15.15,0,0,1-1.54,1.42c-.37.3-.76.6-1.17.88a38.16,38.16,0,0,1-.17,4.08,48.14,48.14,0,0,1-.78,5.32c-.12.59-.24,1.18-.38,1.78-2.06,8.87-6.45,18.92-12.91,28.94q-3.22,5-7.13,10l-.87,1.1H1443v4.46c.73,0,1.47-.11,2.19-.18,1.57-.14,3.11-.31,4.63-.51"/><path class="cls-8" d="M1422,265.55c-2-.22-4.07-.49-6-.82a66.14,66.14,0,0,1-7.69,4.07c1.39.8,2.81,1.55,4.28,2.24a73.27,73.27,0,0,0,9.45-5.49"/><path class="cls-8" d="M1489.59,234.53a27.06,27.06,0,0,1-2.87,2.77c-.63.54-1.29,1.06-2,1.57-.32.23-.65.47-1,.7s-.68.46-1,.69c-.67.43-1.35.84-2.07,1.25q-1.56.92-3.27,1.74c-1.48.73-3,1.41-4.67,2.06a92.71,92.71,0,0,1-17.82,4.9c-1.65.28-3.34.54-5.06.76-1.52.2-3.06.37-4.63.51-.72.07-1.46.13-2.19.18s-1.2.09-1.8.12l-1.1.06-.85,0V203.21c-1.82.12-3.69.17-5.61.17s-3.78,0-5.6-.17v48.67l-.86,0-1.09-.06-1.8-.12c-.74,0-1.47-.11-2.2-.18q-2.34-.21-4.62-.51c-1.72-.22-3.41-.48-5.06-.77a91.81,91.81,0,0,1-17.82-4.89q-2.44-1-4.67-2.05-1.71-.84-3.27-1.74-1.08-.61-2.07-1.26l-.64-.42a48.83,48.83,0,0,0,6.68,13.1c.64.36,1.3.7,2,1A81.75,81.75,0,0,0,1414,260.9c2.07.38,4.19.71,6.35,1,1.31.16,2.64.3,4,.41h0c.66.06,1.33.11,2,.15l1.74.1V276a65.44,65.44,0,0,0,11.21,1.06V262.53l1.73-.1c.67,0,1.34-.09,2-.15h0c1.34-.11,2.67-.25,4-.41,2.16-.26,4.28-.59,6.35-1A81.5,81.5,0,0,0,1474.7,254a50.62,50.62,0,0,0,5-2.84c1.15-.73,2.24-1.49,3.27-2.27.59-.44,1.16-.9,1.7-1.36.33-.27.65-.55,1-.83.47-.42.92-.85,1.35-1.28s1-1,1.45-1.55a27.7,27.7,0,0,0,2.64-3.53,20.12,20.12,0,0,0,3.21-9.82c0-.27,0-.54,0-.81,0-1.37,0-2.73-.17-4.07a17.4,17.4,0,0,1-4.57,8.92"/><path class="cls-8" d="M1469.93,199.2a44.88,44.88,0,0,1-.65,6q-.42,2.5-1.12,5.14c-.15.57-.3,1.13-.47,1.71-3.14,10.76-9.46,22.93-18.51,34.56,1.58-.19,3.14-.42,4.67-.68a109.74,109.74,0,0,0,16.51-30.06c.19-.55.37-1.1.55-1.64q.79-2.53,1.37-5a54.47,54.47,0,0,0,1-5.66c.84-6.55.2-12.22-2.06-16.44a3.53,3.53,0,0,0-.34-.24c0,.11,0,.23,0,.35a8.44,8.44,0,0,1-1.51,4.73,30.29,30.29,0,0,1,.51,7.21"/><path class="cls-6" d="M1443.06,265.76H1443V277a64.45,64.45,0,0,0,15.87-2.74,66.28,66.28,0,0,1-15.81-8.51"/><path class="cls-10" d="M1520.21,183.26a23.23,23.23,0,0,0,7.3-1.07,27.1,27.1,0,0,0-13.82,23.56c0,.7,0,1.39.08,2.08h0a91.55,91.55,0,0,1-.18,10.95.71.71,0,0,1-.15-.08V219a22.09,22.09,0,0,1-.12,2.45v0c-.13,1.05-.24,1.69-.27,1.87v0a24.12,24.12,0,0,1-17,18.77,51.81,51.81,0,0,0,1.36-8.46v0c.1-1.31.15-2.64.15-4a52.17,52.17,0,0,0-2.94-17.28l-.24-.66.08,0a8.92,8.92,0,0,0,1.57-.64,8.61,8.61,0,0,0,3.72-3.81,17.78,17.78,0,0,0,1.4-5.16c.44-2.54.7-5,.73-5.32h0a26.05,26.05,0,0,1,7.53-16.76s0,0,0,0a.24.24,0,0,0,.06.08c1.44,1.82,5.7,3.13,10.74,3.13"/><path class="cls-11" d="M1510,176.81h0a2.61,2.61,0,0,0-1.11,2,1.53,1.53,0,0,0,.08.52,25.12,25.12,0,0,0-7.69,14h0c0,.26-.6,2.65-1.31,5a17.33,17.33,0,0,1-1.94,4.8,8.33,8.33,0,0,1-3.87,3.18,7.68,7.68,0,0,1-1.92.53l-.57-1.15a7.64,7.64,0,0,0,2-.53,8.34,8.34,0,0,0,3.87-3.19,17.06,17.06,0,0,0,1.94-4.8c.71-2.39,1.26-4.77,1.31-5h0a25.19,25.19,0,0,1,9.22-15.31"/><path class="cls-11" d="M1509,179.29a2.06,2.06,0,0,0,.37.74,26.05,26.05,0,0,0-7.53,16.76h0c0,.28-.29,2.78-.73,5.32a17.78,17.78,0,0,1-1.4,5.16,8.67,8.67,0,0,1-5.29,4.45l-.08,0c-.37-1-.78-2.05-1.22-3.05a0,0,0,0,1,0,0c-.27-.63-.56-1.24-.85-1.85a7.68,7.68,0,0,0,1.92-.53,8.33,8.33,0,0,0,3.87-3.18,17.6,17.6,0,0,0,2-4.8c.7-2.39,1.25-4.78,1.3-5h0a25.12,25.12,0,0,1,7.69-14"/><path class="cls-10" d="M1529.29,178.77c0,1.29-2.16,2.39-5.28,2.9-4-.33-7.07-1.6-7.07-3.11,0-1.29,2.17-2.39,5.29-2.9,4,.33,7.06,1.59,7.06,3.11"/><path class="cls-11" d="M1524,181.67l-.42.06h-.79c-5,0-9.08-1.42-9.08-3.18,0-1.35,2.35-2.49,5.69-3h.8c.69,0,1.37,0,2,.08-3.12.51-5.29,1.61-5.29,2.9,0,1.51,3,2.78,7.07,3.11"/><path class="cls-11" d="M1522.8,181.74h.79a23.84,23.84,0,0,1-3.38.23c-5,0-9.09-1.43-9.09-3.19s3.65-3,8.29-3.18c-3.34.48-5.69,1.62-5.69,3,0,1.76,4.06,3.18,9.08,3.18"/><path class="cls-6" d="M1467.7,186.89a6.07,6.07,0,0,0-.71-2.34,1.51,1.51,0,0,0-.11-.22,14.49,14.49,0,0,0-3-3.72l-.11-.11a23.21,23.21,0,0,0-2-1.65c-.49-.36-1-.71-1.55-1.06s-1.39-.86-2.15-1.27h0c-1-.55-2.11-1.08-3.28-1.57l-.5-.22c-1-.42-2.11-.82-3.24-1.18a52.83,52.83,0,0,0-5.29-1.39,2.78,2.78,0,0,1,1,2c0,2.82-5.72,5.12-12.76,5.12s-12.77-2.3-12.77-5.12a2.89,2.89,0,0,1,1.23-2.18,49.78,49.78,0,0,0-6.18,1.56c-1.13.36-2.22.76-3.25,1.18a37.52,37.52,0,0,0-3.81,1.8c-.75.41-1.47.83-2.14,1.26s-1,.69-1.54,1.05a25.46,25.46,0,0,0-2,1.66l-.09.09a14.58,14.58,0,0,0-3,3.74,2.12,2.12,0,0,0-.11.21,6.48,6.48,0,0,0-.71,2.35c0,.12,0,.25,0,.37s0,.25,0,.37a7,7,0,0,0,2.5,4.37l.17.16c.21.19.44.39.68.58a19.57,19.57,0,0,0,2.58,1.71c.36.21.73.41,1.12.6a32.23,32.23,0,0,0,4,1.69l1,.35.47.15c1.3.42,2.68.79,4.14,1.13,1.14.26,2.33.5,3.57.71s2.33.36,3.55.51l.93.1c1.21.13,2.46.24,3.75.31,1.8.11,3.67.17,5.61.17s3.8-.06,5.6-.17c1.29-.07,2.53-.18,3.74-.31l1-.1q1.83-.22,3.54-.51c1.24-.21,2.43-.45,3.56-.71,1.47-.34,2.85-.71,4.14-1.12l.47-.16c.36-.11.7-.23,1-.35a33.6,33.6,0,0,0,4-1.69c.39-.19.76-.39,1.12-.6a18.79,18.79,0,0,0,2.57-1.71c.24-.19.47-.39.69-.58l.16-.16a7,7,0,0,0,2.5-4.37c0-.12,0-.24,0-.37s0-.24,0-.37"/><path class="cls-9" d="M1421.23,174.17c0,2.82,5.71,5.12,12.77,5.12s12.76-2.3,12.76-5.12a2.78,2.78,0,0,0-1-2c-1.18-.25-2.42-.46-3.69-.63l-.62-.09-.23.31a7.14,7.14,0,0,1-.61.75c-.17.19-.35.38-.54.56s-.14.13-.21.18a9.19,9.19,0,0,1-4.45,2.18l-.43.07a8.57,8.57,0,0,1-2.61,0l-.43-.07a9.33,9.33,0,0,1-4.67-2.36c-.18-.17-.36-.36-.54-.55s-.42-.5-.61-.76c-.08-.1-.15-.21-.22-.31l-.62.09c-1,.13-1.89.28-2.79.46a2.89,2.89,0,0,0-1.23,2.18"/></g><polygon points="1331.19 306.64 1331.19 315.18 1323.09 315.18 1323.09 366.68 1314.42 366.68 1314.42 315.18 1306.31 315.18 1306.31 306.64 1331.19 306.64"/><polygon points="1341.72 306.64 1364.18 306.64 1364.18 315.18 1350.38 315.18 1350.38 332.38 1362.25 332.38 1362.25 340.95 1350.38 340.95 1350.38 358.14 1364.18 358.14 1364.18 366.68 1341.72 366.68 1341.72 306.64"/><path d="M1399.77,345.38l2.81,21.3h-8.75L1392.15,354h-8.85l-1.71,12.73h-8.72l2.81-21.21,6.12-38.83h11.88Zm-8.75,0-3.31-25-3.3,25Z"/><polygon points="1455.8 306.64 1455.8 315.18 1447.68 315.18 1447.68 366.68 1439.02 366.68 1439.02 315.18 1430.91 315.18 1430.91 306.64 1455.8 306.64"/><rect x="1466.47" y="306.64" width="8.66" height="60.04"/><polygon points="1507.11 347.77 1517.18 306.64 1525.84 306.64 1525.84 366.68 1517.54 366.68 1517.54 332.99 1510.14 366.68 1504.26 366.68 1496.64 332.99 1496.64 366.68 1488.26 366.68 1488.26 306.64 1496.92 306.64 1507.11 347.77"/><polygon points="1538.81 306.64 1561.27 306.64 1561.27 315.18 1547.47 315.18 1547.47 332.38 1559.35 332.38 1559.35 340.95 1547.47 340.95 1547.47 358.14 1561.27 358.14 1561.27 366.68 1538.81 366.68 1538.81 306.64"/><g class="cls-2"><path d="M1315.72,282.43s0,.55,0,1.56c0,.54,0,.92,0,1.16s0,.34,0,.33q-4.41-.19-7.73-.11h-1.41c-.2,0-.3-.05-.3-.13s0-.1.07-.11l.51-.05c.53,0,.81-.18.86-.45a3.68,3.68,0,0,0,0-.49v-8.48c0-.66,0-1,0-1.1a.45.45,0,0,0-.16-.37,1.36,1.36,0,0,0-.62-.1c-.35,0-.52,0-.52-.15s.15-.17.46-.17h1.28c2.05-.05,3.74-.06,5,0h1.14a7.82,7.82,0,0,0,.9-.05l.16,1.83c.05.58.08.94.08,1.07a.15.15,0,0,1-.17.17c-.11,0-.18-.15-.22-.44a2.25,2.25,0,0,0-.93-1.68,4.15,4.15,0,0,0-2.31-.53l-1.61.05v4.94a5.52,5.52,0,0,0,2.33-.26c.32-.18.53-.66.65-1.43,0-.41.14-.62.25-.62s.15.1.15.3,0,.62,0,1.24c0,.22,0,.5,0,.86,0,1,0,1.68,0,2.18a1.78,1.78,0,0,1,0,.25c0,.13,0,.2-.15.2a.14.14,0,0,1-.15-.08,3.18,3.18,0,0,1-.1-.54,3,3,0,0,0-.46-1.48,2.06,2.06,0,0,0-1.36-.3h-1.14V285h1.07c1.23,0,2,0,2.25-.08a2.51,2.51,0,0,0,1-.37,1.83,1.83,0,0,0,.58-.72,8.34,8.34,0,0,0,.34-1.43c0-.16.09-.25.17-.25s.13.09.13.25"/><path d="M1325.36,282.07a3.3,3.3,0,0,1-1.08,2.52,3.93,3.93,0,0,1-2.76,1,8.37,8.37,0,0,1-2.81-.68.57.57,0,0,0-.24,0c-.19,0-.33.2-.43.6,0,.12-.08.18-.14.18s-.13-.07-.13-.23a7.06,7.06,0,0,1,.08-.77,6.56,6.56,0,0,0,.07-1.06c0-.32,0-.58,0-.77,0-.38,0-.6,0-.67s.06-.26.17-.26.21.24.3.72a3.19,3.19,0,0,0,1.05,1.92,3,3,0,0,0,1.91.74,2.18,2.18,0,0,0,1.53-.57,1.82,1.82,0,0,0,.62-1.39,1.54,1.54,0,0,0-.41-1.12,11.25,11.25,0,0,0-1.94-1.19,6.83,6.83,0,0,1-2.48-2,3.66,3.66,0,0,1-.6-2.11,3.1,3.1,0,0,1,1-2.38,3.65,3.65,0,0,1,2.58-1,4.55,4.55,0,0,1,1.79.4,1.52,1.52,0,0,0,.46.14c.16,0,.27-.15.33-.44q0-.15.15-.15c.11,0,.17.07.17.22s0,.21,0,.47a5.42,5.42,0,0,0,0,.63,12.43,12.43,0,0,0,.07,1.48.44.44,0,0,1,0,.13c0,.1,0,.15-.14.15s-.2-.18-.3-.53a3.44,3.44,0,0,0-.53-1.07,2.73,2.73,0,0,0-.76-.76,2.24,2.24,0,0,0-1.17-.3,2.28,2.28,0,0,0-1.49.45,1.52,1.52,0,0,0-.56,1.24,1.73,1.73,0,0,0,.52,1.22,9.39,9.39,0,0,0,2,1.34,11.6,11.6,0,0,1,2.39,1.61,3.11,3.11,0,0,1,.86,2.25"/><path d="M1337,276.89c0,.09,0,.14-.11.14s-.24-.22-.34-.65a3.27,3.27,0,0,0-.84-1.74,2.54,2.54,0,0,0-1.7-.46h-.79v10.18q0,.42.24.54a4.21,4.21,0,0,0,1.18.2c.12,0,.19.06.19.15s-.09.17-.27.17l-.25,0-.42,0-1.73-.05-2.84.09c-.16,0-.24-.05-.24-.14s0-.1.07-.12l.55,0c.61,0,.94-.17,1-.44s0-1.28,0-3.41v-7.1h-.43a3.07,3.07,0,0,0-2,.49,2.64,2.64,0,0,0-.8,1.74c-.08.49-.18.73-.3.73s-.15-.06-.15-.2,0-.4.07-.92c.08-1.09.14-1.84.16-2.24h1.48l1.16,0c.74,0,1.69,0,2.84,0l1.71,0h1.37l.84,0c0,.72.12,1.64.25,2.76,0,.19,0,.31,0,.35"/><path d="M1341.81,284.33a1.17,1.17,0,0,1-.34.85,1.13,1.13,0,0,1-.85.34,1.22,1.22,0,0,1-.88-.35,1.15,1.15,0,0,1-.35-.84,1.2,1.2,0,0,1,1.23-1.22,1.1,1.1,0,0,1,.83.35,1.15,1.15,0,0,1,.36.87"/><path d="M1527.43,285.25c0,.09-.15.13-.44.13h-5.07q-.42,0-.42-.15a.1.1,0,0,1,.08-.11,4.09,4.09,0,0,1,.65,0,1.49,1.49,0,0,0,.89-.18.85.85,0,0,0,.1-.46v-6.2q0-2,0-2.16c0-.18-.19-.26-.46-.26h-.85c-.29,0-.43,0-.43-.14s.18-.12.55-.15a5.73,5.73,0,0,0,2.42-.7s.23-.15.6-.39l.63-.38.07.25v10.11c0,.45.23.67.67.66.69,0,1,0,1,.15"/><path d="M1539.09,279.1a6.65,6.65,0,0,1-1,3.55,6.27,6.27,0,0,1-2.71,2.41,7.89,7.89,0,0,1-3.43.66c-.24,0-.35,0-.35-.12s.1-.12.3-.12a4.25,4.25,0,0,0,1.77-.48,4.56,4.56,0,0,0,1.83-1.73,5.59,5.59,0,0,0,.89-2.53,3.06,3.06,0,0,1-2,.81,3.4,3.4,0,0,1-2.48-1,3.31,3.31,0,0,1-1-2.47,3.8,3.8,0,0,1,1.09-2.78,3.67,3.67,0,0,1,2.74-1.12,4.24,4.24,0,0,1,2.38.72,4.66,4.66,0,0,1,1.93,4.17m-2.63-.54a10.1,10.1,0,0,0-.3-2.64c-.26-.95-.7-1.42-1.31-1.42a.93.93,0,0,0-.92.67,6.79,6.79,0,0,0-.27,2.3c0,2.35.51,3.52,1.52,3.52a1,1,0,0,0,1-.71,4.41,4.41,0,0,0,.3-1.72"/><path d="M1549.84,279.1a6.65,6.65,0,0,1-1,3.55,6.25,6.25,0,0,1-2.7,2.41,7.93,7.93,0,0,1-3.44.66c-.23,0-.35,0-.35-.12s.1-.12.3-.12a4.29,4.29,0,0,0,1.78-.48,4.6,4.6,0,0,0,1.82-1.73,5.47,5.47,0,0,0,.89-2.53,3.05,3.05,0,0,1-2,.81,3.41,3.41,0,0,1-2.49-1,3.35,3.35,0,0,1-1-2.47,3.81,3.81,0,0,1,1.1-2.78,3.66,3.66,0,0,1,2.74-1.12,4.18,4.18,0,0,1,2.37.72,4.64,4.64,0,0,1,1.93,4.17m-2.63-.54a10.1,10.1,0,0,0-.3-2.64c-.26-.95-.69-1.42-1.31-1.42a.94.94,0,0,0-.92.67,6.79,6.79,0,0,0-.27,2.3c0,2.35.51,3.52,1.53,3.52a1,1,0,0,0,1-.71,4.41,4.41,0,0,0,.3-1.72"/><path d="M1560.41,282.1a3,3,0,0,1-1.34,2.49,5.52,5.52,0,0,1-3.37,1,3.87,3.87,0,0,1-2.2-.53,1.7,1.7,0,0,1-.8-1.48,1.33,1.33,0,0,1,.38-1,1.3,1.3,0,0,1,1-.39c.76,0,1.14.35,1.14,1,0,.53-.36.91-1.09,1.12-.26.08-.38.17-.38.27s.16.25.47.39a2.53,2.53,0,0,0,1,.2,2.36,2.36,0,0,0,1.91-.83,3.44,3.44,0,0,0,.69-2.29,2.38,2.38,0,0,0-.82-2,2.23,2.23,0,0,0-1.31-.4H1555c-.13,0-.2,0-.2-.13s0-.13.07-.15l.58-.12a1.73,1.73,0,0,0,1.15-.81,2.77,2.77,0,0,0,.46-1.59,2.09,2.09,0,0,0-.55-1.5,1.92,1.92,0,0,0-1.44-.57,2,2,0,0,0-1,.25c-.29.17-.43.36-.43.58s.07.17.22.19c.85.16,1.28.52,1.28,1.1a1,1,0,0,1-.27.72,1,1,0,0,1-.71.27,1.18,1.18,0,0,1-.92-.35,1.29,1.29,0,0,1-.34-.95,2,2,0,0,1,.89-1.74,3.77,3.77,0,0,1,2.31-.66,4.5,4.5,0,0,1,2.64.7,2.12,2.12,0,0,1,1,1.81,2.08,2.08,0,0,1-.76,1.59,4.21,4.21,0,0,1-2,1l0,.08a4.21,4.21,0,0,1,2.17.6,2.38,2.38,0,0,1,1.26,2.13"/></g><rect class="cls-10" x="1394.91" y="386.43" width="85.84" height="9.96"/><g class="cls-2"><path class="cls-12" d="M1028.37,888.19c4.93-4.92,12.35-6.46,20.64-5.15a59,59,0,0,0-13.89,6.32,56.4,56.4,0,0,0-7.56,5.51,56.94,56.94,0,0,0,16.11-6.94,61.06,61.06,0,0,0,6.16-4.32,19.26,19.26,0,0,1-5,9.41c-5.12,5.08-12.89,6.62-21.57,5a19.18,19.18,0,0,1,5.11-9.85"/><path class="cls-12" d="M1107,889.74c-2.43-3.73-6.79-5.73-12-6.1A40.33,40.33,0,0,1,1106.69,894a40,40,0,0,1-12.3-10.11,12.83,12.83,0,0,0,1.95,6.52c2.54,3.86,7.11,5.91,12.6,6.15a12.54,12.54,0,0,0-2-6.8"/><path class="cls-12" d="M870.63,710.57c-6.39,4-8.26,12.68-13.58,16.31l.33.24c8.24-2.61,15.41-11.44,25.26-13.08-8.59,2.89-14.75,10.74-21.69,15.08,5.64,2.54,13.67,3.83,18.74.69,6.39-4,8.25-12.68,13.58-16.31-5-3.77-16.22-6.91-22.64-2.93"/><path class="cls-12" d="M1085,886.55c-5.84-7.49-16.93-8.72-22.15-14.93l-.26.45c4.31,10,16.29,17.84,19.59,30-4.71-10.39-15.32-17.09-21.65-25.23-2.45,7.38-3,17.6,1.53,23.54,5.83,7.49,16.93,8.73,22.15,14.93,4.09-6.77,6.59-21.18.79-28.72"/><path class="cls-12" d="M866.5,692c-2.74.45-7.15,3-7.85,6.3s1.5,6.51,1,9.31c2.73-.44,7.15-3,7.85-6.3s-1.5-6.5-1-9.31"/><path class="cls-13" d="M775.81,747.68a.42.42,0,0,1,.18-.06.24.24,0,0,1-.18.06"/><path class="cls-13" d="M777,772.19l.08-.29c0,.19,0,.26-.08.29"/><path class="cls-13" d="M775.33,733l-.05,0c0-.23,0-.54,0-1Z"/><path class="cls-13" d="M778.24,824.47v-.33a1.13,1.13,0,0,1,0,.33"/><path class="cls-13" d="M777.38,793.49a.9.9,0,0,0-.12.41c0-.2,0-.36.12-.41"/><path class="cls-13" d="M771.48,725.23l.26.42c-.11,0-.23-.16-.26-.42"/><path class="cls-13" d="M793.65,720.19s0,0,0,.06,0,0,0-.06"/><path class="cls-13" d="M778.91,721.23c-.13,0-.27-.07-.42-.11.18,0,.4,0,.42.11"/><path class="cls-13" d="M778.29,721.05l.2.07c-.11,0-.2,0-.2-.07"/><path class="cls-13" d="M1045.1,871.62a2.88,2.88,0,0,1,1.18.35Z"/><path class="cls-13" d="M778.4,871.81l.1-.1c0,.09-.07.11-.1.1"/><path class="cls-13" d="M1045.64,873.88l.3,0a.86.86,0,0,1-.3,0"/><path class="cls-13" d="M770.79,733.12c-.25.43.05,1.32-.2,1.31,0-.46-.15-1.1.2-1.31"/><path class="cls-13" d="M768.64,870.94v.28a1.13,1.13,0,0,1,0-.28"/><path class="cls-13" d="M1045.64,873.88l-.35.06a.64.64,0,0,1,.1-.13.72.72,0,0,0,.25.07"/><path class="cls-13" d="M882.91,871h0l-.1-.05Z"/><path class="cls-13" d="M885.53,870.55l-.56-.08a1,1,0,0,1,.56.08"/><path class="cls-13" d="M1046.28,872l.68.2a2.55,2.55,0,0,1-.68-.2"/><path class="cls-13" d="M913.71,870.93l-.26,0a.5.5,0,0,1,.26,0"/><path class="cls-13" d="M777.23,791.5c0-.07,0-.16-.05-.23s.1,0,.05.23"/></g><polygon class="cls-13" points="770.47 810.98 770.47 810.98 770.47 810.97 770.47 810.98"/><g class="cls-2"><path class="cls-13" d="M770.79,809.93a1.55,1.55,0,0,1-.32,1,1.8,1.8,0,0,1,.32-1"/><path class="cls-13" d="M770.6,813.2l0-.12a.3.3,0,0,1,0,.12"/><path class="cls-13" d="M770.1,792.28h0l0,0Z"/><path class="cls-13" d="M770.06,796.43a.91.91,0,0,1,.11.28.66.66,0,0,1-.11-.28"/><path class="cls-13" d="M769.89,823.52h0v0Z"/><path class="cls-13" d="M768,862.57c.15-3.92.66-9,.52-12.88a8,8,0,0,0,.65-3.32l-.69-.13.22-1c-.21-.43-.13.79-.39,0l.43-.39c-.25-.09-.16-2.66-.66-.92v-4c0-.89.58-.52.41-1.5-.2-.2-.14.36-.39.28-.51-3,1.35-3.41,1-6.16l-.09.24c.19-.47.16-1.36.26-1.37.7.35-.38.49,0,1.33.59-.07.31-1,.76-1-.21-.64.12-1,.16-1.58-.37-1-.11-2.33-.57-3a4.4,4.4,0,0,0,.79-2c-.46-.72-.44.17-.62-.81l.35-.16c-.06-.8-.15-.67-.31-.65,0-.86.47-.71.25-1.79l-.34.6a9.86,9.86,0,0,0,.05-2.23c-.2,0-.19.47-.13.79-.51-.6.22-1,.16-1.36.15.1.22.87.56.49-.06-.55.46-1.18.06-1.57l-.33.6c.26-1.15.43-.61.29-1.93,0,.07-.11,0-.18.06.44-.83,0-1.92,0-3.16l-.1.24c.12-.5.43-.78.4-1,.2.71.3.52.63.58-.57-.93.65-1.42.32-2.94-.19,0-.43.39-.23.81-.58.52-1.07.58-1.34,1.51.13-.58.22-1.26,0-1.11l.54-.18c0-.35,0-.63,0-.89.34-.15.56.7.78-.11s-.55-.48-.31-.62c.22-1.26.58-.52.4-1.73,0,.12-.13.36-.08.46-.22-.86.1-2.12-.56-2.38-.14.13-.34.15-.28.48h.1c-.47.95.13-.8-.46-.5.35.07.27-1.15.21-1.7l.39.18c1.19-1.83-.78.09-.63-1.71.27-1.15.11.43.39-.27a5.81,5.81,0,0,1-.25-2.2c-.16-.31-.37-1-.82-1,.18-.69-.2-2.09.24-2.48.37,1.17-.47,1.17.11,2.55l.43-.39a19.56,19.56,0,0,0,0-2.83c.09.13.2.19.29.11.16-1.36.6-1.75.47-3.07-.4-.17-.33.6-.37,1.16-.32-.85,0-.89-.15-2.21-.35-.07,0,.89-.32,1l.11-1.47h-.07c.58-.21-.06-1.11.12-2,0-2.11.77-2.44,1.24-3.61-.16-.32-.31-.41-.45-.28.25.52.05.43-.1.61.06-.71-.57-1.56-.8-1.16.16-1.14.3.41.48-.29l0-1.56c.3.19.37.74.59-.07a10.78,10.78,0,0,0,0-1.89c-.14.12-.45-.28-.43.38-.11-.43-.13-1.1.16-1.36.27,1,.26-1.59.72-.86l-.27-1c0,.22-.19.24-.13.57-.45-.28.12-.8.17-1.14s-.13-1.23-.31-1.3a1.35,1.35,0,0,0-.2-1.2c.09-.45.29,0,.44-.17l0-1.55c-.25-.08-.94-.21-1,0,.24-.59.74-.21.72-1.1-.48.51-.38-1.17-1-.43a5.17,5.17,0,0,1-.22-2.76c.39-.5.22.86.61.81.15-2.24,1.23-2.38,1-4l.11.43a3.46,3.46,0,0,1,.5-1.51c-.48.28-1.31-1.17-1.2-2.86.24-.14.46,1,.85.67l.07-1.12c0-.08-.12,0-.18.19.17-1-.64-1.87-.06-2.17l-.72-1,.31.41c.24-.14.31-1.27.4-1.5a2.64,2.64,0,0,0-.25-2.2c.2.2.66.7.73-.21-.79,0-.29-1.9-.7-1.87,0-.37-.24-1,.09-1.06l-.49.06c.69-.08.65-1.41.77-2.44-.93.24.08-1.12-.77-1.57.63-.19.25-1.81.79-2,0-.79-.57-.71-.77-.91l.24-.37a14,14,0,0,1-.55-2.75l.56-.81-.26-.3c.15-.14.23-.81.44-.39l0-.44c.61,0,.16-.62.42-1.51-.09-.2-.24-.15-.32,0,0-.44-.32-.25-.53-.49.16.31,1.1-1.59,1.37-.4.25.08.44-.61.33-1l-.55-.27.58-.52c.08-.67-.28-1-.34-1.51,0,.56-1,1.25-1-.2a5.71,5.71,0,0,1-.49,1.53c0-.3-.08-.45-.31,0,.17-1.14.34-.38.41-1.5-.5.06-.65-.26-.82-1.24l.36.74a.43.43,0,0,0,.13-.14c.05.27.13.35.32.41,0-.22.61-1.3.31-1.49.77,1.13.59-2,1.05-1.25.15-.12.17-.91-.07-1-.37.94-.56-.71-.9-.55.14-.35.36.73.55.26a2.45,2.45,0,0,0-.43-1.28l-.09.23-.22-.86c.24-.14.41.84.54,0-.1-.21,0-1-.17-1-.34.38-.79.1-.87.78,0-.56.09-2.35.55-1.63l0-.67c.21.42.59,1.6.65.25h-.1l.38-.93-.26-.41c.13,0,.24-.14.23-.48-.15-.09-.21-.42-.4-.39,0-1,.27-.93.42-1.06,0-.56-.07-.78-.36-.51,0-.51,0-1.26-.09-1.85l-.2-1.94,2.36-.22a2.64,2.64,0,0,0,.8-.18c1,.22-.21.11.39.44.89-.86,3.41-.33,5.1-.23-.46.75.46.09.77.77-.37-.24,1.6-.58.12-.79l.9.08c.62-.42-1.49-.31-.56-.88,1,0,10.6.85,11.78.57-.39-.53.92.17.62-.41-.25-.19-.58-.13-.91-.17l.21-.11c2.21-.15.64.63,1.8,1,1.34.07,1.06-.42,1.14-.67a2.32,2.32,0,0,1,1.24.12c-.82-.32-1.52.34-1.14.67.59-.61,2,0,2.36.19-1.92.64-1.33,0-3.14.72-.25-.19-.2-.74-1.29-.51.68.27,0,.3-.24.39.21-.31-.75-.13-1.08-.26-.3.25.65.72-.45.85l-.21-.74c-.43.11-8.74.54-9.65.37.49.38,8.77.59,10,.71-1.48.63-11.19-.34-12.34-.61.12,0,.13.15.25.2a2.26,2.26,0,0,0-1-.23c-.76.17.6.34.4.54l-1.23,0,0,0c-.32-.1-.63-.16-.74,0a7.85,7.85,0,0,1,.75.67l-1.29-.51c.14.24-1.06.42-.14.6l-1.91-.1-.16.49c-.46-.09-.47-.18.07-.24a4.33,4.33,0,0,1-1.17-.17l.45-.45c-.18.79-.34,1.59.28,1.38a25.26,25.26,0,0,0-.5,3.85c.46-1.4.59,1.6.8.12.21.87-.32,1-.41,1.73.22.64.7.35.88-.34l-.22.81h.1l-.28.7c.26.75.49.16.56.93l-.43.17.25.52c-.2-.19-.29.26-.32.82h.1l-.09.68c.27-.67.1.63.41.32a10.36,10.36,0,0,1-.06,1.64l-.3-.18c-.26,1.37.45.06.47,1.17l-.34-.07c.58,1.6-.33,2.71,0,3.89.08-.67.49-.5.39-.49a16.75,16.75,0,0,1-.45,3.74c.5.38.65.47.88,1.56,0,.78-.08.9-.37,1.16.19.76-.09,2.19.27,2.23-.29.17.06.68-.19,1.1l.15.09-.34-.06c.77,1.35-.44,2.28.24,3.65l.09-.24-.14.58c.16.09.25-.15.45-.17l.06,2.67-.26-.53c0,.56-.37.94-.16,1.58.52-1.07,0,.89.42,1.06l.14-.57c0,.78,0,.78-.38.72-.12,1,.66.69.29,1.63l0-.67c-.2-.19-.48.29-.47.73,0,.11.2.42.25.08-.13.8,0,2-.09,2.35.11.44.35.29.44.06-.3,1.71.07.77-.23,2.49l.2,0-.24.58.42.84-.26-.3a5.4,5.4,0,0,0,0,1.57l.29-.26c-.16,1.58.48,1.83.08,3.34,0,.1.14-.14.19-.26-.46,1.4.52,1.06,0,2.46.1-.08.22.07.31,0l-.19.64.39-.05-.58.52.41.39-.19.25c.75.68.18,1.65.75,2.58l-.5-.16c-1,2.36.58,5.39.11,8.23l.39-.05-.46,1.18c.31.63.34-.38.54-.18-.22,1.25-.58.52-.69,2,.26.75.29-.26.43-.61a15.78,15.78,0,0,0-.19,4.36s-.12.08-.15,0a23.1,23.1,0,0,0,0,3.12c.18,0,.21-.27.25-.52,0,.36.15.86,0,1.17l.34-.38c.07.77-.24,2.26.16,2.43-.15-.09-.45,0-.43.61.6.37-.25,1.82.07,2.89.15-.13.18-.91.19-.69a2.37,2.37,0,0,1-.31,1.49l.24-.15-.33,2.5c.6.37-.09,2.35.35,2.18,0,.89-.27-.74-.34.38.26.3-.12,1,.27,1l.05-.12,0,.79.38-.5c-.08.68-.46,1.18-.76,1.21.22.65,0,1.56.39,1.85l.1-.24c-.16,1.81,1.06,3,.4,4.41.06.11.15.09.15-.13l0,1.12.29-.27-.45,1.85.2,0c.07,1.22,0,3.12-.08,4.69l.09-.23c-.3,1.71.19,1.65,0,2.9a.23.23,0,0,0,.08-.13v1.12l.19-.25c-.42.84.55,2.39.19,1.87-.18.48-.41,1.29-.65,1.43,0,1.23.25.3.42,1.06s-.32,1-.14,2.25l.19,0c0,.56-.17.91-.2,1.7l.09-.23c-.41,1.27.58,1.59-.28,2.59.16.54,0,1.56.43,1.51-.25,1.59-.37,2.83-.53,4.41.65.26,0,.34.33,1.3l-.34-.07c-.05,2.24.81,4.81.67,7.27l.35.07-.39.5c.17,2.65.3,6.09.31,8.21a7.44,7.44,0,0,0-.47,2.85l0-.12a30.19,30.19,0,0,0-.14,6c.14-.13.25.08.34-.16-.38.5,0,1.23,0,1.68l-.26-.53a1.79,1.79,0,0,0,.24,1.75l-.37.94c0,.07.09.16.15.18l-.19.16.46.5c-.09.24-.21,1.48-.65,1.87.16.09.27,1,.36.29l0-7.44-.17-.53c-.34-.07-.56,1-.4,1.5.28-.7.49-.06.74.24-.18.47-.3-.41-.49-.16a4.39,4.39,0,0,0-.2,2.14L778,870c-.13.8.48,1.17.45,2-.28.71,0,1.23-.62,1.08-.12,1,.41.39.46.73a2.76,2.76,0,0,0,.11,2l-4.83-4.84a.3.3,0,0,0,.1-.09c.56.87,2.75-.32,3,.42l.84-.42a.89.89,0,0,0,.87.72c.64-.21.49-.55.69-.75l.43.72c3.68-.78,83.47-.26,87.51-.9a47.5,47.5,0,0,0,6.18.39l-.23-.1,2.09-.2-1.52.34a6.16,6.16,0,0,0,1.25.21,32.62,32.62,0,0,1,8.2-.3c1.83.84,1.21-.75,3-.14-.15-.07-.21-.19-.34-.28a39,39,0,0,1,4.8.92c-.21-.83,1.24,0,1.06-.42l.16.34c.42-.2,1.41-.28,1.27-.52l.84.42.07-.35c1.1,0,3.48.26,4.06-.44,2.74.52,7.07.36,10.51.23a6.24,6.24,0,0,0,2.27.34l.84-.42c.8.13,1.65.65,2.39.38a.15.15,0,0,0-.09-.1,6.13,6.13,0,0,1,2.34.24c.89,0,1.75-.24,1.48-.62.09.68,1.88-.1,1.88-.1s114.56-2.56,125.69,1.17c.38.34,1.41.56,1,1,.8.12,1.16-.47,1.32-.14-1.09.23.33.88-.73,1.31l.68.08c.14.24-.92-.28-.76.16l-.19-.63a1.72,1.72,0,0,0-1,.44c-.52-.25-.85-1.11-2.09-.73l.34,0c-1,0-.61.41-.83.51h.23l-.85.32c.64-.22,1.7.3,1.15.26-1.21.18.31-.15-.59-.23-.56,0-.41.31-.38.5l-1,0c0,.29.67,0,.26.29l-1.27-.32c-.24.75-1.38-.36-2,.35.91.17-.08.25.07.49l-2.24,0c-.21.1.59.23.25.19-.42.21-.69-.18-.92-.17-.2.2-1.67,0-1.61.48-1.51.33-.63-.63-2-.34-.18.3,1.12.07.5.38l-1.47-.11a.84.84,0,0,0,.84.42c-4,.4-6.1,2-9.73,1.58-.51.35.37.23.74.47-2.63-.47-3.69.79-5.93.74l0-.29c-3.11.91-6.86.37-10.38.75l.42-.21a7.18,7.18,0,0,0-1.84-.44c-.09.14.41.63-.61.5.22-.1.65-.21.52-.36-3,.77-9.41.58-14.37,1-6.72-.23-82.94,1.23-89.53,1.05,1,0,.57-.71-.18-.54-2.08,1.24-3.6-.21-5.72.64-3.84-.4-7.27.67-10.85-.28l-.07.35c-.53.16-.68-.08-1.24-.11l0,.09c-1.33.13-2.93-.22-3.69-.05l0-.39c-.79,0-.41.3-1.21.07l0,.2-.94-.37c.09.69-2.22.06-2.85.37a23,23,0,0,0-4.5-.29c-.29.36-2.18.35-3.39.53-2.35-.09-80.63-.2-83.62-.07l75-.45-75.7,0c0,.1-.09.15,0,.2-.61.5-1.81-.16-2.43.16.39-.41.54-.07,1-.08.64-.21,0-.64-.84-.42l0,.1-.59-.24c-.07.35-.61.51-.67.86-1.88-.06-3.31-.39-5-.51l-5.11-.34.3-4.46a14.72,14.72,0,0,0,0-2c-.39.28.1-1.91-.57-1.37.25-1.6.54.26,1-.47,0-.44.17-.91-.08-1-.16.21-.41-.36-.47,0l.05-1.07c-.05-.1-.14.14-.19.26.39-2.17-.27,7,.12,5.07.24-.14-.1-10.09.15-10.24.49-2-.27,9.14.07,7.32l-.33.37a2.1,2.1,0,0,0,.25-1.81c-.4-.17-.33.82-.51,1.29,0-.67.09-2.35.45-1.84.13-.8-.23-1.09-.34-1.52.1,0,.27.75.45.28a28.79,28.79,0,0,1-.25-4.09c-.1,0-.24-.08-.29,0,.51-1.07-.37-1-.26-2.42"/><path class="cls-13" d="M770,791.75l.06.53c-.09,0-.19,0-.29.28Z"/><path class="cls-13" d="M770.29,817.18a.93.93,0,0,1-.11.19c0-.13.07-.18.11-.19"/><path class="cls-13" d="M769.59,823.35c.09-.44.19-.05.3.17-.08,0-.18,0-.3-.17"/><path class="cls-13" d="M771.09,777.34c0,.09-.1.15-.18.14.07-.13.13-.16.18-.14"/><path class="cls-13" d="M770.8,737.53a1.66,1.66,0,0,0,.06.16.3.3,0,0,1-.06-.16"/><path class="cls-13" d="M771.42,739.73a1.79,1.79,0,0,1-.06.45.88.88,0,0,1,.06-.45"/><path class="cls-13" d="M770.94,787a.86.86,0,0,1-.12.42.63.63,0,0,1,.12-.42"/><path class="cls-13" d="M771.27,740.64l.05.56h-.08Z"/><path class="cls-13" d="M770.75,736.83a5.12,5.12,0,0,0,0,.7,1,1,0,0,1,0-.7"/><path class="cls-13" d="M771.59,762.73s0,0,0,.06c-.17.43-.1.16,0-.06"/></g><polygon class="cls-13" points="770.5 743.31 770.61 743.14 770.6 743.07 770.5 743.31"/><g class="cls-2"><path class="cls-13" d="M770.59,734.43a.64.64,0,0,1-.07.28c0-.09,0-.19,0-.32a.21.21,0,0,0,.11,0"/><path class="cls-13" d="M771,754.39a.57.57,0,0,1,.32-.22c0,.18-.07.3-.32.22"/><path class="cls-13" d="M944,720a.38.38,0,0,1-.07-.17.21.21,0,0,1,.07.17"/><path class="cls-13" d="M959.3,718.24l-.33-.08c.22,0,.3,0,.33.08"/><path class="cls-13" d="M927,720.44s0,0,0,0l-1.19,0Z"/><path class="cls-13" d="M1111,716.82h-.38a1.17,1.17,0,0,1,.38,0"/><path class="cls-13" d="M983.85,717.82a1.2,1.2,0,0,0,.48.12c-.23,0-.42,0-.48-.12"/><path class="cls-13" d="M918.08,724.28l.48-.26c0,.11-.18.23-.48.26"/><path class="cls-13" d="M900.91,723.23l.05-.06s0,.05-.05.06"/><path class="cls-13" d="M907.62,722.19l.48.12c-.2,0-.46,0-.48-.12"/><path class="cls-13" d="M908.33,722.37l-.23-.06c.13,0,.24,0,.23.06"/><path class="cls-13" d="M1088.63,874.33a3.8,3.8,0,0,1-1.36-.35Z"/><path class="cls-13" d="M1151,740.66l.1-.11c0,.1-.07.12-.1.11"/><path class="cls-13" d="M1088,872.07l-.35.06a1.17,1.17,0,0,1,.35-.06"/><path class="cls-13" d="M927.17,725c.5.26,1.52-.05,1.51.2-.53,0-1.27.15-1.51-.2"/><path class="cls-13" d="M1141.41,752.19v.33a1.54,1.54,0,0,1,0-.33"/><path class="cls-13" d="M1088,872.07l.4-.06a.74.74,0,0,1-.12.13.89.89,0,0,0-.28-.07"/><path class="cls-13" d="M1151.11,797.47v0l0-.11Z"/><path class="cls-13" d="M1151.52,800.48c0-.21,0-.41.08-.64a1.14,1.14,0,0,1-.08.64"/><path class="cls-13" d="M1087.27,874l-.77-.2a3.11,3.11,0,0,1,.77.2"/><path class="cls-13" d="M1151.15,833l0-.3a1.21,1.21,0,0,1,0,.3"/><path class="cls-13" d="M981.56,718l-.27,0c0-.06,0-.1.27,0"/><polyline class="cls-13" points="1004 724.73 1004.01 724.73 1004.01 724.73 1004 724.73"/><path class="cls-13" d="M1002.8,724.41a2,2,0,0,1,1.2.32,2.28,2.28,0,0,1-1.2-.32"/><path class="cls-13" d="M1098.06,724.46l-.14,0a.35.35,0,0,1,.14,0"/><path class="cls-13" d="M982.46,725.1v0Z"/><path class="cls-13" d="M987.24,725.14a1.16,1.16,0,0,1,.33-.11.91.91,0,0,1-.33.11"/><path class="cls-13" d="M1110,725.18h0Z"/><path class="cls-13" d="M1140.61,730c.09-2.62.3-5.68.43-8.66l5.26,5.27c-2.18-.1-4.31-.15-6.19-.09a10.71,10.71,0,0,0-3.82-.66l-.16.7-1.19-.23c-.48.21.92.13.06.4l-.45-.43c-.09.24-3.06.16-1.06.66h-4.62c-1,0-.6-.58-1.73-.41-.23.21.4.14.31.39-3.39.52-3.92-1.34-7.09-1l.27.09c-.54-.18-1.56-.16-1.58-.26.41-.7.57.38,1.54,0-.09-.59-1.21-.32-1.14-.77-.74.22-1.18-.12-1.83-.15-1.1.37-2.68.1-3.51.57a5.37,5.37,0,0,0-2.3-.79c-.83.46.2.44-.93.61l-.19-.34c-.92,0-.78.15-.74.31-1,0-.83-.47-2.07-.25l.69.33a13.29,13.29,0,0,0-2.58,0c0,.2.55.18.92.13-.69.5-1.19-.22-1.56-.17.1-.15,1-.22.56-.55-.64.06-1.36-.47-1.81-.06l.69.33c-1.33-.27-.71-.43-2.23-.3.08,0,0,.11.08.19-1-.44-2.22,0-3.65,0l.27.09c-.57-.12-.89-.42-1.2-.4.81-.2.59-.3.66-.63-1.07.57-93.12-.52-94.87-.18,0,.19.45.43.93.23.6.58,92.16.93,93.23,1.2-.66-.13-1.45-.21-1.28,0l-91.7-.4c-.4,0-.72,0-1,0-.17-.34.81-.56-.12-.79s-.56.56-.72.32c-1.45-.22-.6-.58-2-.41a1,1,0,0,0,.53.09c-1,.22-2.45-.1-2.75.55.15.15.18.35.56.29l0-.1c1.1.47-.91-.13-.57.46.08-.35-1.33-.27-2-.21l.2-.4c-2.1-1.18.12.79-2,.64-1.33-.27.49-.11-.32-.39a7.64,7.64,0,0,1-2.53.25c-.36.16-1.1.37-1.16.82-.8-.18-2.42.2-2.87-.24,1.36-.37,1.36.47,2.94-.11l-.44-.43a26,26,0,0,0-3.26,0c.15-.09.22-.2.12-.29-1.56-.16-2-.6-3.54-.47-.19.4.7.33,1.34.37-1,.32-1,0-2.54.15-.08.35,1,0,1.2.32l-1.69-.11s0,0,0,.07c-.24-.58-1.28,0-2.31-.12-2.45,0-2.82-.77-4.17-1.24-.36.16-.47.31-.32.45.6-.26.5,0,.7.1-.82-.06-1.8.57-1.34.8-1.31-.16.47-.3-.33-.48l-1.79,0c.21-.3.84-.37-.09-.59a14.18,14.18,0,0,0-2.18,0c.15.15-.32.46.44.44a2,2,0,0,1-1.56-.16c1.12-.28-1.84-.26-1-.72l-1.12.27c.26,0,.28.19.66.13-.32.45-.92-.13-1.31-.17s-1.42.13-1.5.3a1.8,1.8,0,0,0-1.38.21c-.53-.09,0-.3-.19-.44l-1.79,0c-.1.25-.25.94,0,1-.68-.23-.24-.73-1.27-.71.59.48-1.35.38-.5,1a6.8,6.8,0,0,1-3.18.22c-.57-.39,1-.22.94-.61-2.59-.15-2.75-1.23-4.64-1l.49-.11a4.19,4.19,0,0,1-1.74-.51c.32.49-1.35,1.32-3.3,1.21-.16-.24,1.09-.46.78-.85l-1.3-.07c-.09,0,.05.12.22.18-1.16-.17-2.16.64-2.49.06L930.27,725l.46-.3c-.16-.24-1.46-.32-1.73-.41a3.43,3.43,0,0,0-2.53.25c.23-.2.8-.66-.24-.73,0,.79-2.19.29-2.16.7-.42,0,17.79-.32,17.74-.65l-18.89,1.05c-.09-.68,17.32-1.21,16.15-1.34.26.94,7.11.5,6.59,1.35-.22-.64-2.09-.25-2.3-.79-.91,0-.81.56-1,.76l-.43-.24a17.39,17.39,0,0,1-3.16.55l-1-.56-.35.26c-.15-.14-.93-.23-.44-.44l-.51,0c0-.61-.71-.17-1.73-.43-.24.1-.18.24,0,.33-.5,0-.29.32-.56.52.36-.16-1.83-1.1-.46-1.37.09-.25-.71-.43-1.21-.32l-.3.55-.6-.58c-.78-.08-1.12.27-1.75.33.65,0,1.44,1.06-.23,1a7.23,7.23,0,0,1,1.77.5c-.35,0-.52.07,0,.3-1.31-.17-.44-.33-1.73-.4.07.49-.29.65-1.42.82l.84-.37a.51.51,0,0,0-.16-.13c.32,0,.41-.13.48-.32-.26,0-1.5-.61-1.72-.31,1.3-.76-2.27-.59-1.44-1.05-.14-.14-1.05-.17-1.14.07,1.08.38-.82.56-.64.91-.4-.14.85-.37.3-.55a3,3,0,0,0-1.47.42l.27.1-1,.22c-.16-.25,1-.42.05-.55-.24.11-1.16,0-1.13.17.43.34.12.79.9.87-.65,0-2.71-.09-1.88-.55l-.77,0c.48-.21,1.84-.58.29-.65v.1l-1.08-.37-.47.25c0-.12-.15-.24-.55-.23-.11.15-.49.21-.46.4-1.16,0-1.06-.27-1.21-.41-.65,0-.9.07-.59.36a14,14,0,0,0-3,.26c-1.19-.22.24-.1-.45-.44-1,.86-3.93.34-5.87.23.52-.75-.53-.09-.89-.77.42.24-1.84.58-.14.79l-1-.07c-.71.41,1.71.3.64.87-1.16,0-1.92-.84-3.29-.57.46.53-1.06-.17-.71.41a2.44,2.44,0,0,0,1,.18l-.24.1c-2.55.15-.74-.63-2.07-1-1.56-.07-1.23.42-1.32.67a3.06,3.06,0,0,1-1.43-.12c.95.33,1.75-.33,1.31-.67-.68.61-2.3.05-2.72-.19,2.21-.64,1.53,0,3.62-.72.28.19.24.74,1.49.51-.79-.27.05-.3.27-.39-.24.32.87.13,1.25.26.35-.25-.75-.72.52-.85l.23.74c.5-.11-.21-.54.85-.37-.57-.38.17-.59-1.26-.71,1.71-.63,2.62.34,3.94.61-.14,0-.15-.15-.28-.2a2.75,2.75,0,0,0,1.19.23c.87-.17-.7-.33-.47-.54l1.42,0a.09.09,0,0,0,0,0c.37.1.73.17.86,0a7.43,7.43,0,0,1-.87-.67l1.49.51c-.17-.24,1.22-.42.16-.59l2.2.1.19-.5c.52.09.54.19-.09.25.75-.12,3.33.86,2.94-.11a34.81,34.81,0,0,0,4.43.49c-1.6-.46,1.85-.58.14-.79,1-.22,1.21.32,2,.4.74-.21.41-.7-.39-.88l.94.23,0-.1.82.28c.86-.27.18-.5,1.07-.57l.19.44.61-.26c-.23.2.29.29.94.32v-.09l.78.08c-.77-.27.72-.09.36-.41a13.88,13.88,0,0,1,1.9.06l-.21.3c1.58.26.06-.44,1.35-.47l-.08.35c1.84-.59,3.13.32,4.49-.05-.78-.08-.59-.48-.57-.38a22,22,0,0,1,4.3.44c.45-.5.55-.65,1.8-.87.91,0,1,.07,1.34.36.88-.19,2.52.1,2.57-.27.2.29.79-.06,1.27.19l.11-.15-.08.35c1.56-.78-5.77-.13-4.2-.81l-.27-.09.66.14c.11-.16-.16-.25-.19-.45l-15.88.5-.6.26c.64,0,1.08.37,1.82.16-1.23-.52,1,0,1.22-.42l-.66-.14c.9,0,.9,0,.83.38,1.17.12.8-.66,1.88-.29l-.77,0c-.23.2.33.49.84.48.12-.06.48-.21.09-.25.92.13,16.77-.62,17.18-.48.49-.11.33-.35.06-.44,2,.3.89-.07,2.87.23l0-.2.68.24,1-.42-.35.25a6.7,6.7,0,0,0,1.81.06l-.31-.29c1.83.16,2.12-.49,3.85-.08.12-.05-.15-.15-.29-.19,1.61.46,1.22-.52,2.84,0-.1-.1.07-.22,0-.31l.74.19L960,718l.6.58.45-.41.29.19c.79-.75,1.9-.19,3-.75l-.18.5c2.72,1,6.21-.58,9.49-.11l-.06-.39,1.36.46c.72-.31-.44-.34-.21-.54,1.44.22.6.58,2.28.69.86-.26-.3-.29-.7-.43a20.88,20.88,0,0,0,5,.19c0,.05.1.12,0,.15a30.73,30.73,0,0,0,3.6,0c0-.18-.32-.21-.6-.25a2.87,2.87,0,0,1,1.34,0l-.44-.34c.89-.07,2.61.24,2.81-.16-.11.15-.07.45.7.43.43-.6,2.1.25,3.33-.08-.15-.14-1.05-.17-.8-.18A3,3,0,0,1,993,718l-.17-.24,2.88.33c.43-.6,2.71.09,2.52-.35,1,0-.86.27.44.34.34-.26,1.17.12,1.11-.27l-.13,0,.9,0-.57-.38c.78.08,1.36.46,1.4.76.74-.22,1.79,0,2.12-.39l-.27-.1c2.08.15,94.93-1.19,96.57-.54.12-.05.1-.15-.15-.14l1.28,0-.3-.29,2.12.45,0-.2c1.41-.08,3.6,0,5.41.08l-.27-.09c2,.3,1.9-.19,3.34,0a.25.25,0,0,0-.15-.08h1.3l-.29-.19c1,.42,2.75-.56,2.16-.2.54.19,1.48.42,1.64.66,1.42,0,.35-.26,1.22-.42a12.42,12.42,0,0,0,2.59.14l0-.2c.65,0,1.06.18,2,.21l-.27-.1c1.47.41,1.84-.58,3,.28.62-.16,1.79,0,1.73-.43,1.84.26,3.27.37,5.09.53.29-.65.39,0,1.49-.33l-.08.35c2.58,0,5.54-.81,8.38-.67l.08-.35.57.38,4.72-.21,4.93-.22.16,5.3c0,1.92.09,3.52.09,4.75a9.74,9.74,0,0,0-.47,3.28l0-.14a40,40,0,0,0-.15,7c.15-.15.25.09.34-.18-.38.57,0,1.42,0,1.93l-.26-.6a2.3,2.3,0,0,0,.25,2l-.38,1.08c0,.07.09.18.15.2l-.19.19.46.58c-.09.27-.21,1.7-.65,2.15.16.1.28,1.11.36.33l.13,4-.16-.62c-.34-.07-.56,1.12-.4,1.73.27-.8.49-.06.74.28-.18.54-.3-.47-.5-.18a5.62,5.62,0,0,0-.19,2.47l.14-.41c-.13.92.47,1.34.45,2.25-.28.81,0,1.41-.62,1.25-.12,1.17.4.45.46.83a3.31,3.31,0,0,0,.2,2.41c-.87.64.32,3.16-.42,3.4l.42,1c-.2,0-.64.22-.72,1,.21.74.56.56.76.79l-.73.49c.78,4.25.26,9.86.91,14.52a58.57,58.57,0,0,0-.39,7.12l.09-.27.2,2.41-.33-1.75a7.49,7.49,0,0,0-.22,1.45,42.52,42.52,0,0,1,.31,9.44c-.85,2.11.74,1.4.13,3.42.08-.17.2-.23.28-.39a50.78,50.78,0,0,1-.92,5.54c.84-.25,0,1.42.42,1.23l-.34.18c.21.48.28,1.62.52,1.46l-.42,1,.35.08c0,1.28-.26,4,.45,4.69-.53,3.16-.37,8.15-.24,12.11a7.92,7.92,0,0,0-.33,2.62l.41,1c-.13.92-.65,1.9-.38,2.76a.15.15,0,0,0,.11-.1,8.32,8.32,0,0,1-.25,2.69c0,1,.24,2,.63,1.71-.69.1.09,2.17.09,2.17s.51,15.93.35,32.41l-.06,5.71-5.61,0c-13.44-.14-51.9-1.6-57.67-3.28-.43-.34-1.62-.56-1.16-1-.93-.13-1.35.47-1.53.13,1.25-.23-.39-.88.84-1.3l-.79-.09c-.16-.24,1.07.28.88-.16l.22.63a2,2,0,0,0,1.21-.44c.6.25,1,1.11,2.41.73l-.39,0c1.16,0,.71-.42,1-.52H1091l1-.32c-.74.21-2-.31-1.32-.27,1.39-.17-.36.16.68.23.64,0,.46-.3.43-.5l1.16,0c0-.29-.76,0-.29-.29l1.46.32c.27-.75,1.59.36,2.26-.35-1-.17.09-.25-.08-.49l2.58,0c.24-.1-.68-.23-.29-.19.49-.2.8.18,1.06.18.23-.21,1.92,0,1.85-.49,1.75-.33.74.63,2.37.35.21-.3-1.3-.07-.57-.38l1.69.11a1,1,0,0,0-1-.43c4.56-.39,31.68-1.1,35.86-.69.59-.36-.43-.24-.84-.48,3,.48,4.25-.78,6.83-.74l0,.3.39-.1-3.78,3.79c-.78-3.51-.29-7.66-.66-11.58l.21.49a9.91,9.91,0,0,0,.45-2.13c-.15-.1-.63.48-.51-.69.1.24.21.74.36.59-.77-3.48-.58-10.84-.95-16.56.22-7.74-.36-16.14-.17-23.75,0,1.16.7.67.53-.2-1.23-2.39.21-4.15-.63-6.59.39-4.43-.68-8.38.27-12.5l-.35-.08c-.16-.62.08-.79.12-1.43h-.1c-.13-1.52.22-3.37.05-4.25l.4,0c0-.91-.3-.47-.08-1.4l-.2,0,.37-1.08c-.68.1-.05-2.56-.36-3.29a30.49,30.49,0,0,0,.28-5.18c-.35-.33-.35-2.51-.53-3.9.09-2.71.2-6.59.08-10l.44.07,0-.9c-.1,0-.15-.11-.19,0-.51-.69.15-2.07-.16-2.8.4.46.06.63.07,1.15.21.73.64,0,.42-1l-.09,0,.23-.68c-.35-.08-.51-.69-.86-.77.09-3,.68-5,.52-8-.39.32.1-2.19-.58-1.58.26-1.84.55.3,1-.53,0-.52.17-1.06-.08-1.15-.16.24-.41-.42-.47,0l0-1.23c0-.11-.15.16-.19.29.39-2.5-.44-4.43,0-6.67.24-.17.07.89.32.72.49-2.25-.44-2-.09-4.1l-.34.44a2.78,2.78,0,0,0,.25-2.1c-.4-.19-.32,1-.51,1.49,0-.77.09-2.71.45-2.12a3.34,3.34,0,0,0-.34-1.75c.1,0,.27.86.45.32a38.08,38.08,0,0,1-.25-4.71c-.1,0-.24-.1-.29,0,.51-1.23-.37-1.1-.26-2.79"/><path class="cls-13" d="M981.84,725.16l.62-.06c0,.09,0,.19.32.29Z"/><path class="cls-13" d="M1102.64,724.78l.22.1c-.15,0-.2-.06-.22-.1"/><path class="cls-13" d="M1109.76,725.47c-.51-.08-.06-.19.19-.29,0,.08,0,.17-.19.29"/><path class="cls-13" d="M965.24,724.12c.11,0,.18.09.16.17s-.18-.13-.16-.17"/><path class="cls-13" d="M932.25,725l.18-.06a.31.31,0,0,1-.18.06"/><path class="cls-13" d="M934.79,724.35a2.22,2.22,0,0,1,.52,0,1.33,1.33,0,0,1-.52,0"/><path class="cls-13" d="M976.36,724.26a1.18,1.18,0,0,1,.49.12.81.81,0,0,1-.49-.12"/><path class="cls-13" d="M935.84,724.49l.64,0s0,0,0,.08Z"/><path class="cls-13" d="M931.45,725c.25,0,.58,0,.8,0a1.33,1.33,0,0,1-.8,0"/><path class="cls-13" d="M948.4,723.61h.07c.5.17.18.1-.07,0"/><path class="cls-13" d="M938.64,725.17l.08,0,.19.11Z"/><path class="cls-13" d="M928.68,725.17a1,1,0,0,1,.32.07l-.36,0a.24.24,0,0,0,0-.12"/><path class="cls-13" d="M924.33,724.79c-.18-.15-.25-.25-.26-.33.22,0,.35.07.26.33"/><path class="cls-13" d="M1068.11,891.24a1.15,1.15,0,0,0,0-2.29,1.15,1.15,0,0,0,0,2.29"/><path class="cls-3" d="M807.67,778.73a.7.7,0,0,1,.63-.75h9.8a.7.7,0,0,1,.63.75l-.13,4.78c1.51-4.9,3.9-9.3,7.54-9.8,6.53-.88,9.42,4.4,10.43,12.94,1-6.79,3.27-15.45,8.54-16.33,13.07-2.14,12.32,25.63,12.32,57.79a.71.71,0,0,1-.63.76c-1.89.12-7.29,1.63-12.44.37a.82.82,0,0,1-.75-.88c0-5.9,2.76-45.86-.38-46.61s-5.28,11.94-6.54,24.63q-.18,6-.75,12.44a.63.63,0,0,1-.5.62c-1,.38-3.27.25-7.92.25a.68.68,0,0,1-.63-.87c.26-5,1.64-36.19-2.13-37.07s-6.54,20.73-7.16,35.68v-.12c-.26,4.27-.51,7.91-.51,10.93,0,1.25-3,1.51-3.89,1.51s-5.4-.38-5.53-1.64c-.5-7.54-.13-43.85,0-49.38"/><path class="cls-3" d="M884.08,776.85c-3.65.5-3.52,17.09-3.52,17.09a46.36,46.36,0,0,0,6.66,0c.37-6.54.63-17.59-3.14-17.09m-12.57,46.36a69,69,0,0,1,9.55-.63c5.78,0,9.55.51,10.68,1,.25.13.5.25.5.63a20,20,0,0,1-.63,4.4.68.68,0,0,1-.75.5c-5.53-.88-16.21.12-18.34.12a.67.67,0,0,1-.63-.37c-.38-1.13-.63-3.77-.88-5,0-.25.12-.63.5-.63M897,798.59a.86.86,0,0,1-.88.88c-2.64.12-12.06.75-15.71.37,0,0-1.13,13.2,4.4,12.94,3.27-.12,4.52-5.65,4.52-7.66a.81.81,0,0,1,.76-.75c2.13-.13,4.14-.51,5.65,0a1.09,1.09,0,0,1,.76,1c-.51,4.52-5.28,14.7-14.83,14.58-10.05-.13-16.08-11.31-15.08-29,1-18.47,14.58-20.73,14.58-20.73S897,766,897,798.59"/><path class="cls-3" d="M906.46,777c.12-.75.62-1.5,1.38-1.5a73.69,73.69,0,0,1,11.93,0c.63.25.88.5.88,1.13-.12,3.39-.12,6.91-.25,10.43,1.89-5.91,6.16-16.21,12.06-16.84,0,0,13.45-1.63,7.92,20.48-.38,1.51-3.14,1.51-4.4,1.51a15.58,15.58,0,0,1-4-.63.81.81,0,0,1-.63-.88c1.39-12.19-2-11.06-2-11.06-4.27,1.51-9,22.62-9.67,25.38-.5,9.93-.88,18.35-1.13,23.37a1,1,0,0,1-.76,1,21.22,21.22,0,0,1-10.55-.38.92.92,0,0,1-.63-.75c-.5-7-.12-43.85-.12-51.27"/><path class="cls-12" d="M940.63,803a2.5,2.5,0,0,1,1.76-.5h3.77a13.4,13.4,0,0,1,4.4.63c.75.25,1.25.63,1.25,1.26a.82.82,0,0,1,0,.62,1.51,1.51,0,0,1-1.13,1,4.08,4.08,0,0,1-.75.13c-.25,0-.63.12-1,.12h-2.51a20.35,20.35,0,0,1-3.89-.25H942a1.35,1.35,0,0,1-1-.25c-.38-.25-.76-.5-.76-1a2,2,0,0,1,.38-1.76"/><path class="cls-3" d="M961.82,828.11c-.51-7.91-.13-50.88,0-57.17a.72.72,0,0,1,.75-.75c2.14-.25,8.79-2,12.69-.13a.87.87,0,0,1,.63.88c-.13,8.42-.38,17-.5,25,2.63-4.27,7.91-12.57,11.93-16.59a1,1,0,0,1,1-.12c1.13.5,4,2,5,5a.77.77,0,0,1-.25.88c-1.51,1.51-7.41,7.54-12.31,12.82,4.27,7.66,12.31,23.74,13.94,27a1,1,0,0,1-.25,1c-3.14,2.76-7.79,3.26-9.29,3.26-2.52,0-9.05-21.1-10.06-24.5-.37,9.93-1.38,18.35-1.38,23.75a.78.78,0,0,1-.63.75,22.17,22.17,0,0,1-10.68-.37c-.25-.25-.37-.51-.62-.76"/><path class="cls-12" d="M998.74,803a2.5,2.5,0,0,1,1.76-.5h3.77a13.4,13.4,0,0,1,4.4.63c.75.25,1.26.63,1.26,1.26a.89.89,0,0,1,0,.62,1.55,1.55,0,0,1-1.14,1,4.08,4.08,0,0,1-.75.13c-.25,0-.63.12-1,.12h-2.52a20.35,20.35,0,0,1-3.89-.25h-.5a1.37,1.37,0,0,1-1-.25c-.38-.25-.75-.5-.75-1a2,2,0,0,1,.37-1.76"/><path class="cls-3" d="M1035.33,774.84c-.25,3-4.4,5.15-7.54,4.77,0,0-6.53-.37-6.53-3.89s3.14-5.91,7.54-5.53,6.78,1.76,6.53,4.65m-11.94,53.9-1.75-.25a.57.57,0,0,1-.63-.5c-.51-6.41-.13-40.46,0-45.36a.57.57,0,0,1,.5-.63c2-.12,8.8,0,13.07,0,.25,0,.5.13.5.63-.5,18.09-2.14,36.94-2.14,45.73,0,.26-.25.38-.5.51a3.63,3.63,0,0,1-1.13.12,41,41,0,0,1-7.92-.25"/><path class="cls-3" d="M1044,779a.84.84,0,0,1,.88-.76l7.29.13v-6.79a.86.86,0,0,1,.88-.88c2.26,0,9.42-1,13.19-.12a.91.91,0,0,1,.75.88c0,2.38-.12,4.77-.12,7.16l5.4.12a1,1,0,0,1,.88.63,7.16,7.16,0,0,1,.13,4.4,1.08,1.08,0,0,1-.88.75l-5.66-.12c-.25,11.93-.5,23.62-.88,32.54-.12,3.27.76,5.78,2.77,6.41a.93.93,0,0,1,.63.88,20.28,20.28,0,0,1-.38,4.14c-.13.51-.38.76-.88.76-16.33,0-16-13.82-16-13.82V784l-7.28-.12a1,1,0,0,1-.88-.63c-.26-1.13.12-2.77.12-4.27"/><path class="cls-3" d="M1094.36,781.88a33.81,33.81,0,0,1,3.64,2,.67.67,0,0,1,.26.88c-1,1.63-1.76,3.14-2.52,4.52a7.09,7.09,0,0,0,4.15,1.88,18,18,0,0,0,3.64-.12c.13-7.29-.75-15.46-4-15.33s-4.65,3.77-5.15,6.16m8.8,15.07a18.47,18.47,0,0,1-9.8-1.76c-3.4,10.56-.63,17.34,1.88,17.72,3.14.5,6.53-7.41,7.66-13.32a15.1,15.1,0,0,0,.26-2.64m-20.11,25.63A90,90,0,0,1,1094,822a57,57,0,0,1,12.07,1,.92.92,0,0,1,.75.88c0,1.51-.75,3.52-.75,4.52a.83.83,0,0,1-.88.76c-6.41-1-18.35.12-21,.12a1,1,0,0,1-.88-.62,20.87,20.87,0,0,1-1-5,.81.81,0,0,1,.75-1m29.28-35.18a.77.77,0,0,1,.75.13c.88,1.63.76,3.14.76,5.28,0,1-3.77,2.51-4.65,2.76-.76,11.94-5,24-15.46,24-8.29,0-16.21-9.05-15.33-21.36a44.6,44.6,0,0,1,5.41-18.72.68.68,0,0,1,.62-.38,20.86,20.86,0,0,1,4,.5c1-5,4.27-9.29,11-8.92,7.92.38,9.55,11.56,9.8,18.35,1-.51,2.14-1.13,3-1.64"/><path class="cls-3" d="M804.37,720.16c.11-7.5,1-14,1-18.27a1.08,1.08,0,0,1,.54-.87c4.68-3.16,10.88-4.57,16.43-4.57,1.95,0,12,1.09,12,3.48a14.58,14.58,0,0,1-.43,4.13,1.17,1.17,0,0,1-1.53.76c-2.28-.76-8.16-2.72-14.57-1.52-.55,5.22-.87,9.46-1.09,14.14,3-.11,6.31-.32,7.94-.32a1.19,1.19,0,0,1,1.2,1,4.65,4.65,0,0,1,.1,2.18,1.15,1.15,0,0,1-1.08,1l-8.38.43c-.11,7.18,0,14.36.22,20.78a25.45,25.45,0,0,0,14-6.42.87.87,0,0,1,1.09-.22,4.3,4.3,0,0,1,2.07,2.18,1.35,1.35,0,0,1-.11,1.09c-6,8.92-20.13,8.59-21.87,8.48a13.88,13.88,0,0,1-5.11-.76,1.15,1.15,0,0,1-.65-.87,156.55,156.55,0,0,1-1.74-25.78"/><path class="cls-3" d="M838.31,697.64a.73.73,0,0,1,.55-.76c1.63-.43,7.07-.87,9.57,0a.81.81,0,0,1,.54.76c-.1,4.57-2.06,43.3-1.63,45.58a24.24,24.24,0,0,0,6.85-.44.62.62,0,0,1,.77.66c0,1,.11,2.06.11,3,0,.33-.22.66-.55.55-4.78,0-14.25.65-16.64.54a.73.73,0,0,1-.76-.65c-.22-6.31,1.09-44.49,1.19-49.28"/><path class="cls-14" d="M614.85,289.6a6.48,6.48,0,1,1-6.47-6.48,6.47,6.47,0,0,1,6.47,6.48"/><path class="cls-15" d="M336,352.43a31.42,31.42,0,1,1,0-62.83Z"/><path class="cls-15" d="M345.55,323.11a31.42,31.42,0,0,0,31.35,29.32V323.11Z"/><path class="cls-15" d="M351.57,302.28a12.69,12.69,0,1,0,12.68-12.68,12.68,12.68,0,0,0-12.68,12.68"/><path class="cls-15" d="M467.47,302.28a12.69,12.69,0,1,0,12.68-12.68,12.68,12.68,0,0,0-12.68,12.68"/><path class="cls-15" d="M452.34,352.43a31.42,31.42,0,1,1,0-62.83Z"/><path class="cls-15" d="M461.45,323.11a31.42,31.42,0,0,0,31.34,29.32V323.11Z"/><path class="cls-15" d="M569.17,352.43a31.42,31.42,0,1,1,0-62.83Z"/><path class="cls-15" d="M573.36,352.43a31.42,31.42,0,1,0,0-62.83Z"/><path class="cls-15" d="M412.5,321a31.41,31.41,0,0,0-31.42-31.41V321c0,.55,0,1.09.05,1.63v29.79H412.5Z"/><path class="cls-15" d="M528.4,321A31.41,31.41,0,0,0,497,289.6V321c0,.55,0,1.09,0,1.63v29.79H528.4Z"/><path class="cls-15" d="M621.12,337a28.52,28.52,0,0,1,40.33-40.33Z"/><path class="cls-15" d="M619.41,344.85a28.43,28.43,0,1,0,40.2-40.21Z"/></g><path class="cls-14" d="M399.71,395c-2.11,3-5.86,5.06-10.62,5.06-7.69,0-12.95-5.29-12.95-13s5.26-13,12.95-13a12.53,12.53,0,0,1,10.17,4.51,1.54,1.54,0,0,1,.37,1,1.25,1.25,0,0,1-1.31,1.31,1.37,1.37,0,0,1-1.17-.6,9.78,9.78,0,0,0-8.06-3.71c-6,0-10.17,4.27-10.17,10.5s4.13,10.51,10.17,10.51a9.85,9.85,0,0,0,8.37-4.09,1.32,1.32,0,0,1,1.16-.6,1.28,1.28,0,0,1,1.31,1.31A1.54,1.54,0,0,1,399.71,395Z"/><path class="cls-14" d="M412.12,381.29c5.63,0,9.49,3.79,9.49,9.38s-3.86,9.38-9.49,9.38-9.45-3.82-9.45-9.38S406.53,381.29,412.12,381.29Zm0,16.44c4.09,0,6.87-2.85,6.87-7.06s-2.78-7.05-6.87-7.05-6.83,2.85-6.83,7.05S408.07,397.73,412.12,397.73Z"/><path class="cls-14" d="M428.25,379.83v1.91h7.8a1.13,1.13,0,0,1,1.28,1.17,1.14,1.14,0,0,1-1.28,1.16h-7.8v14.37a1.3,1.3,0,1,1-2.59,0V379.87c0-4.36,2.52-7,6.68-7a6.37,6.37,0,0,1,6,3.22,1.57,1.57,0,0,1,.18.68,1.14,1.14,0,0,1-1.2,1.2,1.34,1.34,0,0,1-1.12-.75,4,4,0,0,0-3.72-2C429.79,375.21,428.25,376.86,428.25,379.83Z"/><path class="cls-14" d="M442.92,379.83v1.91h7.8a1.13,1.13,0,0,1,1.28,1.17,1.14,1.14,0,0,1-1.28,1.16h-7.8v14.37a1.3,1.3,0,1,1-2.59,0V379.87c0-4.36,2.51-7,6.68-7a6.35,6.35,0,0,1,6,3.22,1.46,1.46,0,0,1,.19.68A1.14,1.14,0,0,1,452,378a1.33,1.33,0,0,1-1.12-.75,4,4,0,0,0-3.72-2C444.46,375.21,442.92,376.86,442.92,379.83Z"/><path class="cls-14" d="M471.17,391.57H456.84a6.65,6.65,0,0,0,7,6.16,6.81,6.81,0,0,0,5.52-2.44,1.31,1.31,0,0,1,1.05-.53,1.14,1.14,0,0,1,1.2,1.2,1.29,1.29,0,0,1-.26.79,9.36,9.36,0,0,1-7.51,3.3c-5.81,0-9.68-3.79-9.68-9.38s3.87-9.38,9.46-9.38c5.33,0,9.19,3.72,9.19,8.71A1.46,1.46,0,0,1,471.17,391.57Zm-14.26-2.25h13.47a6.83,6.83,0,0,0-13.47,0Z"/><path class="cls-14" d="M492.67,391.57H478.33a6.67,6.67,0,0,0,7,6.16,6.79,6.79,0,0,0,5.51-2.44,1.33,1.33,0,0,1,1.06-.53,1.14,1.14,0,0,1,1.2,1.2,1.24,1.24,0,0,1-.27.79,9.32,9.32,0,0,1-7.5,3.3c-5.82,0-9.68-3.79-9.68-9.38s3.86-9.38,9.45-9.38c5.33,0,9.2,3.72,9.2,8.71A1.46,1.46,0,0,1,492.67,391.57Zm-14.26-2.25h13.47a6.83,6.83,0,0,0-13.47,0Z"/><path class="cls-14" d="M513.86,389.25c6,0,8.07,1.65,8.07,5.25,0,3.45-3,5.55-7.88,5.55-3.64,0-6.27-.82-8-2.55a1.31,1.31,0,0,1-.38-.94,1.16,1.16,0,0,1,1.17-1.23,1.55,1.55,0,0,1,1.08.48,9.08,9.08,0,0,0,6,1.88c3.37,0,5.44-1.24,5.44-3.23,0-1.84-1.35-2.59-5.63-2.66-5.82-.11-7.8-1.54-7.8-4.92s3.07-5.59,7.8-5.59c3,0,5.29.68,6.94,2.1a1.28,1.28,0,0,1,.45,1.05,1.16,1.16,0,0,1-1.16,1.24,1.54,1.54,0,0,1-1-.37,8.24,8.24,0,0,0-5.1-1.69c-3.3,0-5.33,1.24-5.33,3.26C508.53,388.53,509.81,389.21,513.86,389.25Z"/><path class="cls-14" d="M542.67,389.62v8.82a1.22,1.22,0,0,1-1.27,1.39,1.25,1.25,0,0,1-1.32-1.39v-8.59c0-4.09-2-6.23-5.74-6.23s-6.26,2.7-6.26,7v7.84a1.3,1.3,0,1,1-2.59,0V374.5a1.3,1.3,0,1,1,2.59,0v10h.07a7.71,7.71,0,0,1,6.76-3.23C540,381.29,542.67,384.22,542.67,389.62Z"/><path class="cls-14" d="M555.76,381.29c5.63,0,9.5,3.79,9.5,9.38s-3.87,9.38-9.5,9.38-9.45-3.82-9.45-9.38S550.17,381.29,555.76,381.29Zm0,16.44c4.09,0,6.87-2.85,6.87-7.06s-2.78-7.05-6.87-7.05-6.83,2.85-6.83,7.05S551.71,397.73,555.76,397.73Z"/><path class="cls-14" d="M588.21,390.67c0,5.63-3.67,9.38-9.08,9.38-3.22,0-5.74-1.24-7.16-3.37h-.08v8.74a1.24,1.24,0,0,1-1.31,1.39,1.22,1.22,0,0,1-1.28-1.39V382.91c0-.91.45-1.39,1.28-1.39a1.22,1.22,0,0,1,1.31,1.39v1.76H572c1.42-2.14,3.94-3.38,7.16-3.38C584.54,381.29,588.21,385,588.21,390.67Zm-2.62,0c0-4.2-2.82-7.05-6.87-7.05s-6.83,2.89-6.83,7.05,2.82,7.06,6.83,7.06S585.59,394.88,585.59,390.67Z"/><g class="cls-2"><path class="cls-16" d="M517.67,211.28a31.42,31.42,0,1,1-62.84,0Z"/><path class="cls-14" d="M505.33,172.07a12.39,12.39,0,1,1,0,24.78Z"/><path class="cls-14" d="M505.33,146.47a5.41,5.41,0,1,1,0,10.82Z"/><path class="cls-14" d="M505.33,176.84a9.78,9.78,0,0,1,0-19.55Z"/></g><rect class="cls-16" x="454.6" y="201.86" width="63.3" height="5.59"/><rect class="cls-14" x="454.6" y="248.4" width="62.84" height="5.59"/></g></svg>