<svg id="Capa_1" data-name="Capa 1" xmlns="http://www.w3.org/2000/svg" xmlns:xlink="http://www.w3.org/1999/xlink" viewBox="0 0 1920 1080"><defs><style>.cls-1{fill:none;}.cls-2{clip-path:url(#clip-path);}.cls-3{fill:#ff6400;}.cls-4{fill:#794bef;}.cls-5{fill:#291f3f;}.cls-6{fill:#ffa6d5;}.cls-7{fill:#1a459c;}.cls-8{fill:#fff;}.cls-9{fill:#f05929;}.cls-10{fill:#242142;}.cls-11{fill:#c2996b;}.cls-12{fill:#7061e8;}.cls-13{fill:#0047ba;}.cls-14{fill:#f7b689;}</style><clipPath id="clip-path"><rect class="cls-1" width="1920" height="1080"/></clipPath></defs><g class="cls-2"><g class="cls-2"><rect class="cls-3" x="25" y="25" width="922.5" height="498.5" rx="20"/><rect class="cls-4" x="25" y="549" width="922.5" height="506" rx="20"/><rect class="cls-5" x="972.5" y="549" width="922.5" height="506" rx="20"/><rect class="cls-6" x="972.5" y="25" width="922.5" height="498.5" rx="20"/><path class="cls-7" d="M1442.35,891l-1,0,0,1.53,1,0a3.5,3.5,0,0,0,.62-.11.69.69,0,0,0,.51-.69.65.65,0,0,0-.24-.55,1.37,1.37,0,0,0-.87-.18"/><path class="cls-7" d="M1380.6,775.69a13,13,0,0,1,2.44,2.93c.28-.8.55-1.52.82-2.16a10.66,10.66,0,0,1,3-4.37,10.13,10.13,0,0,1,7.71-3.3c2.79,0,10.75,2.13,14.34,3.33l.5-4.71-.92-.29a34.59,34.59,0,0,1-7.18-3.76c-6.71-4.29-10.86-11.32-10.52-18.94a19.89,19.89,0,0,1,1.09-7.45,15,15,0,0,1,1.5-3.08,92.09,92.09,0,0,0-33.51,35.37,119.18,119.18,0,0,1,16.47,3.49,10.9,10.9,0,0,1,4.25,2.94"/><path class="cls-7" d="M1501,750.26c.55,11.87-9.5,19.93-20.46,21.87l-.41.07v5.5c6.37-6,13.69-9.28,21.39-9.28,4,0,12.3,2.1,19.65,6a44.22,44.22,0,0,1,4.27,2.56,91.82,91.82,0,0,0-25.29-34.51,40.78,40.78,0,0,1,.78,5.06,19.48,19.48,0,0,1,.07,2.74"/><path class="cls-7" d="M1434,890.8a1.47,1.47,0,0,0-1.18.4,2.55,2.55,0,0,0-.56,1.62,2.46,2.46,0,0,0,.28,1.67,1.6,1.6,0,0,0,2.31.21,2.78,2.78,0,0,0,.56-1.72,2.41,2.41,0,0,0-.29-1.59,1.5,1.5,0,0,0-1.12-.59"/><path class="cls-7" d="M1433.85,769.81a9.8,9.8,0,0,1,3,2.26,11.1,11.1,0,0,1,3.69,7.09c.13,1.34.26,2.78.41,4.4.2,2.33.44,5,.73,7.86,2.25-4.91,4.43-9.95,6.48-15l.05-.11a11.16,11.16,0,0,1,2.9-4,10,10,0,0,1,1.64-1.47,72.69,72.69,0,0,0-18.86-1"/><path class="cls-7" d="M1522.64,820.15c-3,.3-11.11.39-12.1.39a10.23,10.23,0,0,1-10.45-10.21,10.86,10.86,0,0,1,.12-1.56,42.14,42.14,0,0,0-5,19c0,2.58.41,5.17,1.19,6.44a2.16,2.16,0,0,0,1.11.29c1.85,0,6.85-2.53,11.38-6.29a9.67,9.67,0,0,1,6.44-2.62,9.5,9.5,0,0,1,7.31,3.24,11.38,11.38,0,0,1,1.36,1.41c1.54,1.89,3.5,6,4.61,8.57a91.64,91.64,0,0,0,3.85-24.49,12.2,12.2,0,0,1-9.86,5.82"/><path class="cls-7" d="M1465.89,851.9a41,41,0,0,1-6.21-17.61c-7.39,12.31-15,23.17-21.61,30.86a11.51,11.51,0,0,1-9,4.27,14.13,14.13,0,0,1-4.11-.69l-.11,0a71.77,71.77,0,0,1-14.56-7.8l-.11-.08a10.84,10.84,0,0,1-1.41-16c1.39-1.58,4.19-4.88,7.6-9.35a15.75,15.75,0,0,1-2.69-4.35l0-.11c-1.54-3.66-3-9.6-4.11-15.22-3.25,15.09-5.86,30.8-7.29,43.92-.52,5.64-5.26,9.75-11.28,9.75-4.81,0-16.82-2.6-20.45-4.19a13.33,13.33,0,0,1-6.88-6.73c-.05.41-.09.81-.14,1.22a11.44,11.44,0,0,1-.28,1.57A91.71,91.71,0,0,0,1516.62,864c-5.15,3.21-11.31,5.66-17.59,5.66-10.12,0-26.22-7.3-33.14-17.77m-69,32.86-.17-5-2.22,3.51-1.85-1.17,4-6.39,1.84,1.16.17,5.06,2.23-3.54,1.87,1.18-4,6.38Zm10.4,1.92-3.25-1.61-.66,1.33,3.6,1.79-.76,1.53-5.7-2.83,3.36-6.76,5.6,2.78-.72,1.44-3.5-1.74-.54,1.08,3.26,1.61Zm8.18,6.56-2.15-.78.37-4.92-2.86,4-2.15-.77,1-7.68,2.09.76-.69,4.24,2.54-3.58,2.07.75-.33,4.37,2.19-3.7,2.07.75Zm10.89,2.56-2.3-.43.58-3.11-2.09-4.85,2.55.47,1,2.78,2-2.22,2.54.47-3.69,3.78Zm11.29-2.59a4.54,4.54,0,0,1-.63,2.13,3.12,3.12,0,0,1-1.39,1.2,4.22,4.22,0,0,1-2.13.29,5,5,0,0,1-2.08-.58,3.27,3.27,0,0,1-1.24-1.4,4.39,4.39,0,0,1-.33-2.24,3.6,3.6,0,0,1,4.22-3.57,4,4,0,0,1,2.81,1.26,3.78,3.78,0,0,1,.77,2.91m6.18,3.76-1.29-2.29a1.87,1.87,0,0,0-.43-.57,1,1,0,0,0-.58-.17h-.2l0,3.06-2.34,0-.14-7.55,3.89-.08a5.67,5.67,0,0,1,1.66.16,1.73,1.73,0,0,1,.93.67,2.07,2.07,0,0,1,.37,1.21,2,2,0,0,1-.25,1.09,2.09,2.09,0,0,1-.72.76,3.19,3.19,0,0,1-.81.31,2.4,2.4,0,0,1,.61.27,2.34,2.34,0,0,1,.38.39,3,3,0,0,1,.34.46l1.17,2.17Zm8.95-.8-2-2.88-1,1.4.23,1.83-2.32.29-.93-7.5,2.32-.29.35,2.84,2.07-3.14,3.08-.38-2.38,3.17,3.44,4.31Zm13.6-4.16a2.83,2.83,0,0,1-.82,1.14,4,4,0,0,1-1.53.73,4.87,4.87,0,0,1-2,.21,3.18,3.18,0,0,1-1.64-.85,4.2,4.2,0,0,1-1.17-2.07,3.9,3.9,0,0,1,.18-3,4.56,4.56,0,0,1,4.75-1.79,3.4,3.4,0,0,1,1.65,1.38l-1.86,1a1.82,1.82,0,0,0-.35-.42,1.36,1.36,0,0,0-.57-.27,1.44,1.44,0,0,0-.65,0,1.39,1.39,0,0,0-1,1,2.63,2.63,0,0,0,.1,1.51,2.78,2.78,0,0,0,.83,1.56,1.5,1.5,0,0,0,2-.48,2.37,2.37,0,0,0,.18-1.19l2.14,0a3.82,3.82,0,0,1-.24,1.56m7-1.53-1.13-2.84-2.37,1,1.14,2.84-2.17.87-2.81-7,2.16-.87,1,2.45,2.37-1-1-2.45,2.18-.87,2.81,7Zm4-1.74-3.52-6.68,5.54-2.91.75,1.42-3.46,1.83.55,1.06,3.22-1.69.72,1.36-3.22,1.69.7,1.32,3.56-1.88.8,1.52Zm9-5.12-2,1.28-4.11-6.34,4.83-3.14.89,1.36-2.87,1.87.71,1.11,2.46-1.6.83,1.28-2.46,1.59Z"/></g><polygon class="cls-8" points="1400.97 878.37 1398.74 881.9 1398.57 876.85 1396.73 875.69 1392.69 882.08 1394.55 883.25 1396.77 879.74 1396.94 884.76 1398.8 885.93 1402.83 879.55 1400.97 878.37"/><polygon class="cls-8" points="1405.31 882.61 1408.81 884.35 1409.53 882.91 1403.93 880.13 1400.57 886.89 1406.27 889.72 1407.03 888.19 1403.42 886.4 1404.09 885.07 1407.34 886.68 1408.03 885.3 1404.77 883.69 1405.31 882.61"/><polygon class="cls-8" points="1415.39 889.65 1415.72 885.28 1413.65 884.53 1411.11 888.11 1411.8 883.87 1409.71 883.11 1408.73 890.79 1410.88 891.56 1413.74 887.54 1413.37 892.46 1415.52 893.24 1419.65 886.7 1417.58 885.95 1415.39 889.65"/><polygon class="cls-8" points="1428.14 888.44 1426.18 890.66 1425.15 887.88 1422.6 887.4 1424.69 892.26 1424.11 895.37 1426.41 895.8 1426.99 892.69 1430.68 888.91 1428.14 888.44"/><g class="cls-2"><path class="cls-8" d="M1434.12,889a3.58,3.58,0,0,0-4.22,3.57,4.41,4.41,0,0,0,.33,2.24,3.27,3.27,0,0,0,1.24,1.4,5,5,0,0,0,2.08.58,4.22,4.22,0,0,0,2.13-.29,3.12,3.12,0,0,0,1.39-1.2,4.54,4.54,0,0,0,.63-2.13,3.78,3.78,0,0,0-.77-2.91,4,4,0,0,0-2.81-1.26m1.26,3.94a2.81,2.81,0,0,1-.56,1.72,1.6,1.6,0,0,1-2.31-.21,2.52,2.52,0,0,1-.28-1.67,2.55,2.55,0,0,1,.56-1.62,1.47,1.47,0,0,1,1.18-.4,1.5,1.5,0,0,1,1.12.59,2.4,2.4,0,0,1,.29,1.59"/><path class="cls-8" d="M1445,894.29a2.34,2.34,0,0,0-.38-.39,2.4,2.4,0,0,0-.61-.27,2.86,2.86,0,0,0,.81-.31,2.09,2.09,0,0,0,.72-.76,2,2,0,0,0,.25-1.08,2.1,2.1,0,0,0-.37-1.22,1.77,1.77,0,0,0-.94-.67,5.29,5.29,0,0,0-1.65-.15l-3.89.07.14,7.55,2.34,0,0-3.06h.2a1,1,0,0,1,.58.17,1.87,1.87,0,0,1,.43.57l1.29,2.29,2.64-.05-1.17-2.17a3,3,0,0,0-.34-.46m-1.69-2.14a.67.67,0,0,1-.37.24,3.5,3.5,0,0,1-.62.11l-1,0,0-1.53,1,0a1.37,1.37,0,0,1,.87.18.66.66,0,0,1,.24.55.66.66,0,0,1-.14.45"/></g><polygon class="cls-8" points="1454.62 888.34 1451.54 888.72 1449.47 891.86 1449.12 889.02 1446.8 889.31 1447.73 896.81 1450.05 896.52 1449.82 894.69 1450.86 893.29 1452.83 896.17 1455.68 895.82 1452.24 891.51 1454.62 888.34"/><g class="cls-2"><path class="cls-8" d="M1464.35,891.6a1.52,1.52,0,0,1-2,.48,2.78,2.78,0,0,1-.83-1.56,2.63,2.63,0,0,1-.1-1.51,1.39,1.39,0,0,1,1-1,1.44,1.44,0,0,1,.65,0,1.36,1.36,0,0,1,.57.27,1.82,1.82,0,0,1,.35.42l1.86-1a3.4,3.4,0,0,0-1.65-1.38,4.56,4.56,0,0,0-4.75,1.79,3.9,3.9,0,0,0-.18,3,4.2,4.2,0,0,0,1.17,2.07,3.18,3.18,0,0,0,1.64.85,4.87,4.87,0,0,0,2-.21,4.2,4.2,0,0,0,1.53-.73,2.83,2.83,0,0,0,.82-1.14,3.82,3.82,0,0,0,.24-1.56l-2.14,0a2.37,2.37,0,0,1-.18,1.19"/></g><polygon class="cls-8" points="1470.6 883.47 1471.59 885.92 1469.22 886.87 1468.23 884.42 1466.07 885.29 1468.88 892.3 1471.05 891.43 1469.91 888.59 1472.28 887.64 1473.41 890.48 1475.59 889.6 1472.78 882.6 1470.6 883.47"/><polygon class="cls-8" points="1478.65 886.14 1477.96 884.82 1481.17 883.13 1480.46 881.77 1477.24 883.46 1476.68 882.4 1480.15 880.57 1479.4 879.14 1473.86 882.06 1477.38 888.74 1483.02 885.78 1482.22 884.26 1478.65 886.14"/><polygon class="cls-8" points="1486.37 878.16 1483.91 879.76 1483.19 878.65 1486.07 876.78 1485.18 875.42 1480.35 878.57 1484.46 884.9 1486.42 883.62 1484.74 881.03 1487.2 879.44 1486.37 878.16"/><g class="cls-2"><path class="cls-9" d="M1501,750.26c-.47,10.9-10,18.27-20.46,20.11l-.41.07v1.76l.41-.07c11-1.94,21-10,20.46-21.87"/><path class="cls-9" d="M1429.3,768.79h.18a9.89,9.89,0,0,1,4.37,1,72.69,72.69,0,0,1,18.86,1,10.42,10.42,0,0,1,2.36-1.24c-8.27-1.72-16-1.9-25.77-.75"/><path class="cls-9" d="M1401.32,763.36a34.59,34.59,0,0,0,7.18,3.76l.92.29.18-1.7-1.1-.35a34.59,34.59,0,0,1-7.18-3.76c-6.19-4-10.2-10.25-10.52-17.18-.34,7.62,3.81,14.65,10.52,18.94"/><path class="cls-9" d="M1530.73,781.37c3.69,3.84,5.61,8.13,5.61,12.72,0,5.77-2.22,11.77-4.17,16.37a10.85,10.85,0,0,1-9.58,6.69c-3,.3-11,.38-12,.38a9,9,0,0,1-9.21-9,9.5,9.5,0,0,1,.42-2.7,42.92,42.92,0,0,0,1.15-5,28.94,28.94,0,0,0-3.47,5A43.52,43.52,0,0,0,1494,826c0,1.74.2,6.92,2.43,8.2-.78-1.27-1.19-3.86-1.19-6.44a42.14,42.14,0,0,1,5-19,10.86,10.86,0,0,0-.12,1.56,10.23,10.23,0,0,0,10.45,10.21c1,0,9.14-.09,12.1-.39a12.2,12.2,0,0,0,9.86-5.82,11.83,11.83,0,0,0,.82-1.63c2-4.69,4.26-10.85,4.26-16.85,0-5.29-2.35-10.19-6.85-14.48"/><path class="cls-9" d="M1383.86,776.46c-.27.64-.54,1.36-.82,2.16a13,13,0,0,0-2.44-2.93,11.8,11.8,0,0,1,2.62,4.65c.59-2,1.2-3.73,1.79-5.16a9.62,9.62,0,0,1,1.86-3.09,10.56,10.56,0,0,0-3,4.37"/><path class="cls-9" d="M1448.17,776.26l-.05.11c-2,5.1-4.23,10.14-6.48,15-.29-2.86-.53-5.53-.73-7.86-.15-1.62-.28-3.06-.41-4.4a11.1,11.1,0,0,0-3.69-7.09,9.73,9.73,0,0,1,2.45,5.47c.13,1.32.26,2.76.4,4.38.32,3.46.7,7.76,1.2,12.34,2.93-6.15,5.77-12.61,8.42-19.18l0-.09a9.64,9.64,0,0,1,1.75-2.74,11.16,11.16,0,0,0-2.9,4"/><path class="cls-9" d="M1522.68,828.84c.13.14.26.28.38.43,2.15,2.62,5.27,10.19,5.3,10.27a12.49,12.49,0,0,1,1.17,5.17,10.38,10.38,0,0,1-2.33,6.58c-4.5,6-16.08,15.38-28.17,15.38-9.8,0-25.4-7.07-32.1-17.22a40.4,40.4,0,0,1-6.29-21c-7.42,12.68-15.76,25.08-23.51,34.1a10.38,10.38,0,0,1-8,3.84,12.54,12.54,0,0,1-3.72-.63l-.1,0a70,70,0,0,1-14.24-7.65l-.1-.07a9.58,9.58,0,0,1-1.23-14.17c1.42-1.62,4.56-5.31,8.33-10.3a14.11,14.11,0,0,1-3.2-4.75l0-.11c-1.83-4.37-3.66-12.51-5.15-20.89a457.09,457.09,0,0,0-8.63,49.95c-.46,5-4.68,8.65-10,8.65-4.65,0-16.46-2.56-20-4.09a12.22,12.22,0,0,1-6.89-7.8c-.33-1.14-.67-2.4-1-3.76q-.45,3.56-.86,7.05a9.55,9.55,0,0,1-9.53,8.6c-4.13,0-12.45-2.51-15.21-3.82l-.09,0a11,11,0,0,1-6.29-9.93v-.17c.66-19.28,10.11-65.15,15.18-77.23a9.91,9.91,0,0,1,1.9-3,11,11,0,0,0-3,4.31c-5.1,12.16-14.62,58.29-15.28,77.69v.19a12.21,12.21,0,0,0,7,11.05l.1,0c2.92,1.38,11.37,3.93,15.74,3.93a10.75,10.75,0,0,0,10.48-8.13,10.12,10.12,0,0,0,.29-1.57c0-.41.09-.81.14-1.22a13.27,13.27,0,0,0,6.88,6.72c3.63,1.6,15.64,4.2,20.45,4.2,6,0,10.76-4.11,11.27-9.75,1.44-13.12,4-28.83,7.3-43.92,1.14,5.62,2.57,11.56,4.11,15.22l0,.11a15.75,15.75,0,0,0,2.69,4.35c-3.41,4.47-6.21,7.76-7.6,9.35a10.84,10.84,0,0,0,1.41,16l.11.08a71.77,71.77,0,0,0,14.56,7.8l.11,0a14.06,14.06,0,0,0,4.11.69,11.53,11.53,0,0,0,9-4.27c6.62-7.69,14.22-18.55,21.61-30.86a41,41,0,0,0,6.21,17.61c6.92,10.47,23,17.77,33.14,17.77,6.28,0,12.44-2.45,17.59-5.66a44.8,44.8,0,0,0,11.56-10.19,11.64,11.64,0,0,0,2.6-7.35,13.72,13.72,0,0,0-1.27-5.66c-.1-.23-.41-1-.86-2-1.11-2.52-3.07-6.68-4.61-8.57a11.38,11.38,0,0,0-1.36-1.41"/><path class="cls-10" d="M1331.17,852.46v.17a11,11,0,0,0,6.29,9.93l.09,0c2.76,1.31,11.08,3.82,15.21,3.82a9.55,9.55,0,0,0,9.53-8.6q.4-3.5.86-7.05c.34,1.36.68,2.62,1,3.76a12.18,12.18,0,0,0,6.89,7.79c3.49,1.54,15.3,4.1,20,4.1,5.36,0,9.58-3.67,10-8.65a457.09,457.09,0,0,1,8.63-49.95c1.49,8.38,3.31,16.52,5.15,20.89l0,.11a14.11,14.11,0,0,0,3.2,4.75c-3.77,5-6.91,8.68-8.32,10.3A9.57,9.57,0,0,0,1411,858l.1.07a70.25,70.25,0,0,0,14.24,7.65l.1,0a12.54,12.54,0,0,0,3.72.63,10.38,10.38,0,0,0,8-3.84c7.75-9,16.09-21.42,23.51-34.1a40.4,40.4,0,0,0,6.29,21c6.7,10.15,22.3,17.22,32.1,17.22,12.09,0,23.67-9.41,28.17-15.38a10.38,10.38,0,0,0,2.33-6.58,12.49,12.49,0,0,0-1.17-5.17c0-.08-3.15-7.65-5.3-10.27-.12-.15-.25-.29-.38-.43a9.5,9.5,0,0,0-7.31-3.24,9.62,9.62,0,0,0-6.44,2.62c-4.53,3.76-9.53,6.29-11.38,6.29a2.26,2.26,0,0,1-1.11-.29c-2.23-1.28-2.43-6.46-2.43-8.2a43.52,43.52,0,0,1,5.42-20.18,28.94,28.94,0,0,1,3.47-5,42.92,42.92,0,0,1-1.15,5,9.5,9.5,0,0,0-.42,2.7,9,9,0,0,0,9.21,9c1,0,9.07-.08,12-.38a10.85,10.85,0,0,0,9.58-6.7c1.95-4.59,4.17-10.59,4.17-16.36,0-4.59-1.92-8.88-5.61-12.72a33,33,0,0,0-5.3-4.4,44.22,44.22,0,0,0-4.27-2.56c-7.35-3.89-15.61-6-19.65-6-7.7,0-15,3.24-21.39,9.28v-7.26l.41-.07c10.41-1.84,20-9.21,20.46-20.11a19.48,19.48,0,0,0-.07-2.74,40.78,40.78,0,0,0-.78-5.06c-1.85-8.48-6.49-15.06-16.34-16-1.53-.15-3.14-.24-4.76-.27a35.07,35.07,0,0,0-4.71-10c-6.53-9.41-16.66-13.11-27.87-12.77-12.44.38-23.16,5.34-28.8,16.75l-2.3-.12c-7.25-.36-17.64,6.85-22,13.84a14.76,14.76,0,0,0-1.5,3.08,19.89,19.89,0,0,0-1.09,7.45c.32,6.93,4.33,13.23,10.52,17.18a34.59,34.59,0,0,0,7.18,3.76l1.1.34-.18,1.71-.5,4.71c-3.59-1.2-11.55-3.33-14.34-3.33a10.13,10.13,0,0,0-7.71,3.3,9.62,9.62,0,0,0-1.86,3.09c-.59,1.43-1.19,3.19-1.79,5.16a11.68,11.68,0,0,0-2.62-4.65,10.9,10.9,0,0,0-4.25-2.94,119.18,119.18,0,0,0-16.47-3.49,30.3,30.3,0,0,0-3.79-.35,10.36,10.36,0,0,0-7.84,3.29,9.91,9.91,0,0,0-1.9,3c-5.07,12.08-14.52,57.95-15.18,77.23m170.34-81.69c6.39,0,29.84,7.53,29.84,20.68,0,4.89-2,10.3-3.78,14.46a5.89,5.89,0,0,1-5.35,3.63c-2.36.27-10.2.37-11.68.37a4.06,4.06,0,0,1-4.22-4,4.81,4.81,0,0,1,.22-1.32,32.64,32.64,0,0,0,1.51-8.58c0-5.18-1.85-5.18-2.46-5.18-3,0-7.14,3.89-10.51,9.92a48.7,48.7,0,0,0-6.06,22.61c0,8.56,3.11,13.48,8.53,13.48,3.9,0,10.32-3.9,14.67-7.54a4.88,4.88,0,0,1,3.15-1.38,4.53,4.53,0,0,1,3.8,1.81c1.57,1.92,4.55,9,4.58,9a7.89,7.89,0,0,1,.8,3.28,5.56,5.56,0,0,1-1.29,3.54C1519.1,851.15,1508.79,859,1499,859c-8.34,0-22.37-6.54-27.94-15a35.67,35.67,0,0,1-5.49-19.56,72.34,72.34,0,0,1,9.77-35.39c7-11.83,16.31-18.34,26.14-18.34m-92-8.8a31.46,31.46,0,0,1-6.33-3.36c-1.26-.8-12.2-8.21-8-20.49,2.06-6,13.13-14.87,19.94-14.52l.44,0-.82,12.53h2.69c0-2.31.46-12.88,7.62-20.59,5-5.41,12.25-8.3,21.44-8.59,24.45-.73,29.08,19.67,29.64,22.83a52.89,52.89,0,0,1,7.27.2c3,.3,12.35,1.19,13.92,17.87,1.38,14.62-15.26,18.55-17.27,19V755.67l.05-.76.31-.08a14.5,14.5,0,0,0,7.89-4.9,16.25,16.25,0,0,1-8.64,2.62c-9,.36-21.08-4.92-29.24-12.83l-.56-.55.76-.19a55.31,55.31,0,0,1,11.74-1.68c-12.55-4.51-19.71-.41-27.94,4.3-4.52,2.59-9.19,5.26-15.21,6.86-7.32,1.94-13.11-2.41-15.53-4.69,1,3.17,2.49,6,6.58,7.28l.33.1-.44,8.77-.23,2.19Zm6.49,5.27-1.71.41.76-15.12h1.66c6.72,0,12.06-2.91,17.72-6a94.65,94.65,0,0,1,9.61-4.7l.79-.33.62.6a68.94,68.94,0,0,0,6.36,5.3c4.81,3.61,12.89,7.74,21.12,8.51l1.2.09,1.35.06-1.19,15.68-1.7-.75c-23.52-10.42-37.68-8.26-56.59-3.79m39,2.3a9.88,9.88,0,0,0-4,2.71,9.86,9.86,0,0,0-1.75,2.74l0,.09c-2.65,6.57-5.49,13-8.42,19.18-.5-4.58-.88-8.88-1.2-12.34-.14-1.62-.27-3.06-.4-4.38a9.88,9.88,0,0,0-5.41-7.73,9.86,9.86,0,0,0-4.37-1h-.18c9.72-1.15,17.5-1,25.77.75m-104.12,5a5.14,5.14,0,0,1,5.14-3.26c3.47,0,16.25,2.62,18.5,3.52a6.6,6.6,0,0,1,4,5.22c.78,5.52,1.8,14.68,2.78,23.53.11,1,.22,2,.33,3,2.49-13.3,5.52-26.42,7.93-32.17a4.92,4.92,0,0,1,4.92-3.21c2.12,0,11.15,2.38,13.68,3.39a4.75,4.75,0,0,1,2.9,3.47,5.2,5.2,0,0,1,3.8-5l.09,0a104.34,104.34,0,0,1,14.43-1.79,4.79,4.79,0,0,1,4.83,4.32c.12,1.23.25,2.66.39,4.26.65,7.2,1.67,18.58,3.39,28.32a324.65,324.65,0,0,0,15.81-33.73,5.1,5.1,0,0,1,4.67-3c.53,0,1.79,0,8,3.08a56.45,56.45,0,0,1,7.13,4.06,5.73,5.73,0,0,1,2,4.39,7.84,7.84,0,0,1-.37,2.14l0,.09c-7.29,19.56-25.87,53-41.91,71.67a5.38,5.38,0,0,1-4.24,2.11,7.48,7.48,0,0,1-2.15-.38,65.36,65.36,0,0,1-13-7,4.59,4.59,0,0,1-.51-6.82c1.89-2.17,6.64-7.76,12-15.23l-1.93-.82a7.45,7.45,0,0,1-4-4.39c-3.74-8.92-7.57-35.49-8.18-44.08a4.07,4.07,0,0,1-.12.59l0,.12,0,.1c-4.13,11.86-11.83,44.93-15,73.71a4.78,4.78,0,0,1-5.08,4.21c-3.93,0-15.15-2.42-18-3.69a7.22,7.22,0,0,1-4.09-4.65c-2.45-8.31-4.59-22.07-6-32.9-2.21,12-4.17,25-5.56,37.05a4.61,4.61,0,0,1-4.58,4.19c-3,0-10.55-2.14-13.07-3.34a6.06,6.06,0,0,1-3.53-5.47c.63-18.51,10-64,14.8-75.47"/><path class="cls-11" d="M1339.68,855.46c2.52,1.2,10.08,3.34,13.07,3.34a4.63,4.63,0,0,0,4.58-4.19c1.39-12.09,3.35-25.07,5.56-37.05,1.45,10.83,3.59,24.59,6,32.9a7.22,7.22,0,0,0,4.09,4.65c2.82,1.27,14,3.69,18,3.69,2.77,0,4.86-1.75,5.08-4.2,3.14-28.79,10.85-61.86,15-73.72l0-.1,0-.11a4.67,4.67,0,0,0,.12-.6c.61,8.59,4.44,35.16,8.18,44.08a7.43,7.43,0,0,0,4,4.39l1.93.82c-5.34,7.47-10.08,13.06-12,15.23a4.59,4.59,0,0,0,.51,6.82,65.36,65.36,0,0,0,13,7,7.48,7.48,0,0,0,2.15.38,5.38,5.38,0,0,0,4.24-2.11c16-18.64,34.62-52.11,41.91-71.67l0-.09a7.84,7.84,0,0,0,.37-2.14,5.73,5.73,0,0,0-2-4.39,56.45,56.45,0,0,0-7.13-4.06c-6.16-3.08-7.42-3.08-8-3.08a5.1,5.1,0,0,0-4.67,3A324.65,324.65,0,0,1,1438.09,808c-1.72-9.73-2.74-21.12-3.39-28.32-.14-1.6-.27-3-.39-4.26a4.79,4.79,0,0,0-4.83-4.32,103,103,0,0,0-14.43,1.8l-.09,0a5.2,5.2,0,0,0-3.8,5,4.75,4.75,0,0,0-2.9-3.47c-2.53-1-11.56-3.39-13.68-3.39a4.91,4.91,0,0,0-4.92,3.21c-2.41,5.75-5.44,18.87-7.93,32.17-.11-1-.22-2-.33-3-1-8.85-2-18-2.78-23.53a6.6,6.6,0,0,0-4-5.22c-2.25-.9-15-3.52-18.5-3.52a5.14,5.14,0,0,0-5.14,3.26c-4.82,11.48-14.17,57-14.8,75.47a6.06,6.06,0,0,0,3.53,5.47m76.14-79.24a100.67,100.67,0,0,1,13.66-1.71,1.44,1.44,0,0,1,1.48,1.31c.11,1.19.24,2.61.38,4.2.76,8.44,2,22.56,4.33,33.23.25,1.51,1,1.73,1.48,1.73a1.94,1.94,0,0,0,1.51-1.06A317.61,317.61,0,0,0,1457,775.58a1.75,1.75,0,0,1,1.55-1c1.37,0,11.34,5,12.91,6.35a2.33,2.33,0,0,1,.81,1.81,4.67,4.67,0,0,1-.19,1.05c-7,18.89-25.74,52.55-41.32,70.66a2.1,2.1,0,0,1-1.67.93,4.44,4.44,0,0,1-1.07-.2,60.58,60.58,0,0,1-12.14-6.56,1.1,1.1,0,0,1-.39-.91,1.22,1.22,0,0,1,.4-.9c2-2.26,7.18-8.38,12.91-16.51a2.82,2.82,0,0,0,.55-1.52c0-1.43-1.31-2-2-2.29l-2.63-1.13a4.28,4.28,0,0,1-2.23-2.61c-3.82-9.13-8-39.34-8-44.59a2,2,0,0,1,1.3-2m-61.76-.41c.24-.58.66-1.18,2-1.18,3.16,0,15.59,2.62,17.28,3.29a3.22,3.22,0,0,1,1.9,2.52c.78,5.46,1.8,14.61,2.78,23.46.72,6.5,1.4,12.64,1.92,16.75l0,.1c.13.5.39,1.53,1.35,1.53s1.26-1.1,1.36-1.61c3-19.24,7.37-38.63,10.12-45.15.22-.67.81-1,1.76-1,1.45,0,9.92,2.15,12.44,3.16a1.56,1.56,0,0,1,.92,1.53,3.23,3.23,0,0,1-.08.58c-4.17,12-12,45.42-15.14,74.46-.11,1.13-1.46,1.19-1.73,1.19-3.37,0-14.19-2.31-16.61-3.4a3.91,3.91,0,0,1-2.22-2.53c-3.46-11.74-6.33-34.88-7.41-44.36-.3-1.53-1.14-1.7-1.48-1.7-1,0-1.24,1.11-1.36,1.69-3.16,14.92-6.06,32.82-7.93,49.11a1.26,1.26,0,0,1-1.23,1.19c-2.28,0-9.27-1.9-11.61-3a2.64,2.64,0,0,1-1.62-2.4c.62-18.16,9.81-62.92,14.54-74.21"/><path class="cls-11" d="M1465.6,824.5a35.64,35.64,0,0,0,5.49,19.56c5.57,8.44,19.6,15,27.94,15,9.76,0,20.07-7.89,24.23-13.43a5.56,5.56,0,0,0,1.29-3.54,7.89,7.89,0,0,0-.8-3.28c0-.07-3-7.12-4.58-9a4.53,4.53,0,0,0-3.8-1.81,4.88,4.88,0,0,0-3.15,1.38c-4.35,3.64-10.77,7.54-14.67,7.54-5.42,0-8.53-4.92-8.53-13.48a48.7,48.7,0,0,1,6.06-22.61c3.37-6,7.49-9.92,10.51-9.92.61,0,2.46,0,2.46,5.18a32.64,32.64,0,0,1-1.51,8.58,4.81,4.81,0,0,0-.22,1.32,4.06,4.06,0,0,0,4.22,4c1.48,0,9.32-.1,11.68-.37a5.89,5.89,0,0,0,5.35-3.63c1.76-4.16,3.78-9.57,3.78-14.46,0-13.15-23.45-20.68-29.84-20.68-9.83,0-19.12,6.51-26.14,18.34a72.37,72.37,0,0,0-9.77,35.39m35.91-50.36c5.12,0,26.47,6.91,26.47,17.31,0,4.83-2.56,10.87-3.53,13.17a2.54,2.54,0,0,1-2.4,1.55h-.11c-1.73.22-9.31.36-11.4.36-.41,0-.85-.19-.85-.61a2.12,2.12,0,0,1,.09-.39,35.77,35.77,0,0,0,1.64-9.51c0-7.44-3.65-8.55-5.83-8.55-9.32,0-19.94,19.13-19.94,35.9,0,15.63,9.11,16.85,11.9,16.85,6.74,0,15.88-7.52,17-8.43a1.77,1.77,0,0,1,.87-.48,1.22,1.22,0,0,1,1.17.54c1,1.21,3.54,6.84,4.09,8.21a4.7,4.7,0,0,1,.54,2,2.18,2.18,0,0,1-.56,1.45c-3.68,4.9-13.07,12.15-21.58,12.15-7.3,0-20.34-6.21-25.13-13.46A32.39,32.39,0,0,1,1469,824.5c0-28.36,17.49-50.36,32.54-50.36"/><path class="cls-8" d="M1341.14,852.42c2.34,1.11,9.33,3,11.61,3a1.26,1.26,0,0,0,1.23-1.19c1.88-16.29,4.77-34.19,7.94-49.11.11-.58.33-1.69,1.35-1.69.34,0,1.18.17,1.48,1.7,1.08,9.48,4,32.62,7.41,44.36a3.91,3.91,0,0,0,2.22,2.53c2.42,1.09,13.24,3.4,16.61,3.4.27,0,1.62-.06,1.73-1.19,3.17-29,11-62.46,15.14-74.46a3.23,3.23,0,0,0,.08-.58,1.56,1.56,0,0,0-.92-1.53c-2.52-1-11-3.16-12.44-3.16-.95,0-1.54.34-1.76,1-2.75,6.52-7.09,25.91-10.12,45.15-.1.51-.31,1.61-1.36,1.61s-1.22-1-1.35-1.53l0-.1c-.52-4.11-1.2-10.25-1.92-16.75-1-8.85-2-18-2.78-23.46a3.22,3.22,0,0,0-1.9-2.52c-1.69-.67-14.12-3.29-17.28-3.29-1.37,0-1.79.6-2,1.18-4.73,11.29-13.92,56.05-14.54,74.21a2.64,2.64,0,0,0,1.62,2.4"/><path class="cls-8" d="M1424.72,825.41l2.63,1.13c.71.3,2,.86,2,2.29a2.82,2.82,0,0,1-.55,1.52c-5.73,8.13-10.94,14.25-12.91,16.51a1.22,1.22,0,0,0-.4.9,1.1,1.1,0,0,0,.39.91,60.58,60.58,0,0,0,12.14,6.56,4.44,4.44,0,0,0,1.07.2,2.1,2.1,0,0,0,1.67-.93c15.58-18.11,34.28-51.77,41.32-70.66a4.67,4.67,0,0,0,.19-1.05,2.33,2.33,0,0,0-.81-1.81c-1.57-1.31-11.54-6.34-12.91-6.35a1.75,1.75,0,0,0-1.55,1,317.61,317.61,0,0,1-18.36,38.34,1.94,1.94,0,0,1-1.51,1.06c-.44,0-1.23-.22-1.48-1.73-2.31-10.67-3.57-24.79-4.33-33.23-.14-1.59-.27-3-.38-4.2a1.43,1.43,0,0,0-1.48-1.31,100.67,100.67,0,0,0-13.66,1.71,2,2,0,0,0-1.3,2c0,5.25,4.15,35.46,8,44.59a4.28,4.28,0,0,0,2.23,2.61"/><path class="cls-8" d="M1473.9,842.21c4.79,7.25,17.83,13.46,25.13,13.46,8.5,0,17.9-7.25,21.58-12.15a2.18,2.18,0,0,0,.56-1.45,4.77,4.77,0,0,0-.54-2c-.55-1.36-3.1-7-4.09-8.2a1.22,1.22,0,0,0-1.17-.54,1.77,1.77,0,0,0-.87.48c-1.07.91-10.21,8.43-17,8.43-2.79,0-11.9-1.22-11.9-16.85,0-16.78,10.62-35.9,19.94-35.9,2.18,0,5.83,1.11,5.83,8.55a35.77,35.77,0,0,1-1.64,9.51,2.12,2.12,0,0,0-.09.39c0,.42.44.61.85.61,2.09,0,9.67-.14,11.4-.37h.11a2.53,2.53,0,0,0,2.4-1.56c1-2.29,3.53-8.33,3.53-13.16,0-10.4-21.35-17.31-26.47-17.31-15,0-32.54,22-32.54,50.36a32.33,32.33,0,0,0,4.93,17.71"/><path class="cls-8" d="M1450.27,749.55a73.92,73.92,0,0,1-6-4.92c-3.11,1.32-5.88,2.82-8.57,4.27-5.73,3.08-11.16,6-18.12,6.25l-.46,9.12c8.46-2,16.06-3.4,24-3.4,9.13,0,18.77,1.88,30.81,7l.7-9.3c-8.77-.82-17.33-5.19-22.43-9"/><path class="cls-11" d="M1474.34,771.78l1.19-15.68-1.35-.06L1473,756c-8.23-.77-16.31-4.9-21.12-8.51a68.94,68.94,0,0,1-6.36-5.3l-.62-.6-.79.33a95.9,95.9,0,0,0-9.62,4.7c-5.65,3-11,5.92-17.71,6h-1.66l-.76,15.12,1.71-.41c18.91-4.47,33.06-6.63,56.59,3.79Zm-33.15-10.91c-8,0-15.58,1.44-24,3.4l.46-9.12c7-.26,12.39-3.17,18.12-6.26,2.69-1.44,5.46-2.94,8.57-4.26a73.92,73.92,0,0,0,6,4.92c5.1,3.83,13.66,8.2,22.43,9l-.71,9.3c-12-5.12-21.67-7-30.8-7"/><path class="cls-11" d="M1410.22,759.92l.44-8.77-.33-.1c-4.09-1.32-5.62-4.11-6.58-7.28,2.42,2.28,8.21,6.63,15.53,4.69,6-1.6,10.69-4.27,15.21-6.86,8.23-4.71,15.39-8.81,27.94-4.3a55.31,55.31,0,0,0-11.74,1.68l-.76.19.56.55c8.16,7.91,20.21,13.19,29.24,12.83a16.25,16.25,0,0,0,8.64-2.62,14.5,14.5,0,0,1-7.89,4.9l-.31.08-.05.76v11.16c2-.42,18.65-4.34,17.27-19-1.57-16.68-10.87-17.57-13.92-17.87a52.89,52.89,0,0,0-7.27-.2c-.56-3.16-5.19-23.56-29.64-22.82-9.19.28-16.41,3.17-21.44,8.58-7.16,7.71-7.61,18.28-7.63,20.59h-2.68l.82-12.53-.44,0c-6.81-.35-17.88,8.5-19.94,14.52-4.22,12.28,6.72,19.69,8,20.49a31.46,31.46,0,0,0,6.33,3.36l.43.14Zm-2.56-1.75c-1-.51-2-1.11-3-1.78s-10.46-7-6.9-17.41c1.43-4.19,9.2-11,15-12.48l-.81,12.31,8.26,0-.1-2.28c0-.12-.32-11.38,6.94-19.16,4.53-4.86,11.11-7.46,19.57-7.72a35.9,35.9,0,0,1,4.56.13c19.74,1.83,22.41,20.6,22.44,20.79l.26,2.08,2.09-.16a48.87,48.87,0,0,1,7,.16l.16,0c2.79.26,10.18,1,11.55,15.48.92,9.81-7.82,13.94-12.52,15.44l.44-6.61a16.93,16.93,0,0,0,9-7,2.42,2.42,0,0,0-.66-3.27,2.4,2.4,0,0,0-3,.22c-3.37,3-8,3.26-11.33,3-6.61-.61-14.75-4.17-21.11-9.18a56,56,0,0,1,7.71-.72,2.39,2.39,0,0,0,2.31-1.93l0-.17a2.42,2.42,0,0,0-1.52-2.72,35.36,35.36,0,0,0-9.34-2.28c-8.84-.82-15,2.73-21.6,6.49-4.37,2.5-8.88,5.08-14.57,6.59a11.93,11.93,0,0,1-4.11.36,15.67,15.67,0,0,1-9.13-4.59,2.39,2.39,0,0,0-2.75-.43l-.27.14a2.4,2.4,0,0,0-1.23,2.8c.89,3,2.47,6.74,6.81,8.76Z"/><path class="cls-8" d="M1401.11,744.18a2.39,2.39,0,0,1,1.23-2.8l.27-.14a2.39,2.39,0,0,1,2.75.43,15.67,15.67,0,0,0,9.13,4.59,11.93,11.93,0,0,0,4.11-.36c5.69-1.51,10.2-4.09,14.57-6.59,6.57-3.76,12.76-7.31,21.6-6.49a35.36,35.36,0,0,1,9.34,2.28,2.41,2.41,0,0,1,1.52,2.72l0,.17a2.39,2.39,0,0,1-2.31,1.93,55.87,55.87,0,0,0-7.71.72c6.36,5,14.5,8.57,21.1,9.18,3.32.3,8,0,11.34-3a2.4,2.4,0,0,1,3.64,3.06,17,17,0,0,1-9,7l-.44,6.61c4.7-1.5,13.44-5.63,12.52-15.44-1.37-14.51-8.76-15.22-11.55-15.49h-.16a47.2,47.2,0,0,0-7-.16l-2.09.16-.26-2.08c0-.19-2.7-19-22.44-20.79a36.06,36.06,0,0,0-4.57-.13c-8.45.26-15,2.86-19.56,7.72-7.26,7.78-6.94,19-6.94,19.16l.1,2.28-8.26,0,.81-12.31c-5.84,1.47-13.61,8.29-15,12.48-3.56,10.36,5.82,16.71,6.9,17.41s2.06,1.27,3,1.78l.26-5.23c-4.34-2-5.92-5.73-6.81-8.76"/><path class="cls-8" d="M550,852.24c-4,.85-8.05-2.33-12.07-9.31L492.81,720.57c-3.17-4.87-6.56-5.93-10.37-3.18a14,14,0,0,1-17.57.22c-3.6-2.33-6.56-1.91-9.32,1.06-2.11,3.17-1.69,6.35,1.06,9.1,5.93,4.44,12.28,6.14,18.84,5.29L434.81,842.93c-4,7-8.26,10.16-12.28,9.31-4,.43-6.14,2.54-6.56,6.57.42,4,2.54,6.13,6.56,6.56a24.84,24.84,0,0,0,18.84-8.47,23.26,23.26,0,0,0,18,8.47c4-.43,6.14-2.54,6.57-6.56-.43-4-2.54-6.14-6.57-6.57-5.92-.63-9.52-3.81-10.58-9.52l9.74-25.83,4.66-13.12,23.07-62.24,22.86,62.24,5.08,13.12,9.74,25.83c-1.48,5.71-4.87,8.89-10.58,9.52-4,.43-6.14,2.54-6.57,6.57.43,4,2.54,6.13,6.57,6.56a22.78,22.78,0,0,0,18-8.68A25.7,25.7,0,0,0,550,865.37c4-.43,6.14-2.54,6.56-6.56-.42-4-2.54-6.14-6.56-6.57"/><path class="cls-12" d="M486.41,715.9c2.26,0,4.37,1.56,6.4,4.67L537.9,842.93c3.6,6.25,7.2,9.45,10.8,9.45a6.17,6.17,0,0,0,1.27-.14c4,.43,6.14,2.54,6.56,6.57-.42,4-2.54,6.13-6.56,6.56a25.7,25.7,0,0,1-18.63-8.68,22.78,22.78,0,0,1-18,8.68c-4-.43-6.14-2.54-6.57-6.56.43-4,2.54-6.14,6.57-6.57,5.71-.63,9.1-3.81,10.58-9.52l-9.74-25.83-5.08-13.13-22.86-62.23-23.07,62.23-4.66,13.13-9.74,25.83c1.06,5.71,4.66,8.89,10.58,9.52,4,.43,6.14,2.54,6.57,6.57-.43,4-2.54,6.13-6.57,6.56a23.26,23.26,0,0,1-18-8.47,25,25,0,0,1-18.12,8.48h-.72c-4-.43-6.14-2.54-6.56-6.56.42-4,2.54-6.14,6.56-6.57a6.12,6.12,0,0,0,1.28.14c3.63,0,7.4-3.2,11-9.45l40.64-109.87a25.18,25.18,0,0,1-3.24.21,25.63,25.63,0,0,1-15.6-5.5c-2.75-2.75-3.17-5.93-1.06-9.11a6.84,6.84,0,0,1,5-2.55,8.07,8.07,0,0,1,4.33,1.5,14.48,14.48,0,0,0,8.74,3,13.69,13.69,0,0,0,8.83-3.21,6.87,6.87,0,0,1,4-1.49m0-3.33h0a10.08,10.08,0,0,0-5.92,2.12,1.33,1.33,0,0,0-.19.14,10.31,10.31,0,0,1-6.69,2.43,11.05,11.05,0,0,1-6.72-2.31l-.21-.15a11.4,11.4,0,0,0-6.14-2,10,10,0,0,0-7.43,3.62,3.39,3.39,0,0,0-.33.42c-3,4.45-2.42,9.43,1.47,13.32a3.65,3.65,0,0,0,.36.31,29.24,29.24,0,0,0,16,6.12L431.78,841.5c-2.81,4.8-5.7,7.54-8,7.54a3,3,0,0,1-.59-.06,3.23,3.23,0,0,0-.69-.07h-.35c-5.56.59-8.95,4-9.53,9.54a2.73,2.73,0,0,0,0,.7c.58,5.56,4,8.94,9.53,9.53h.22l.85,0a28,28,0,0,0,18-7.07,26.66,26.66,0,0,0,18.07,7.06l.35,0c5.57-.59,9-4,9.54-9.54a4,4,0,0,0,0-.69c-.59-5.57-4-9-9.54-9.54-4.19-.45-6.52-2.29-7.46-5.95l9.39-24.9a.14.14,0,0,0,0-.06l4.66-13.13,19.92-53.71L506,804.92l0,.05,5.08,13.13,9.34,24.76c-1.24,3.8-3.51,5.63-7.44,6.07-5.54.58-8.93,4-9.52,9.53a4.09,4.09,0,0,0,0,.7c.59,5.56,4,8.94,9.54,9.53l.35,0a26.21,26.21,0,0,0,18.06-7.18A29.26,29.26,0,0,0,550,868.71l.35,0c5.56-.59,8.94-4,9.53-9.53a2.73,2.73,0,0,0,0-.7c-.59-5.57-4-9-9.53-9.54H550a3.23,3.23,0,0,0-.69.07,2.93,2.93,0,0,1-.58.06c-1.27,0-3.94-1-7.77-7.54l-45-122.08a3.21,3.21,0,0,0-.33-.67c-2.68-4.1-5.77-6.18-9.2-6.18"/><path class="cls-8" d="M563,758.07c-.42,4-2.54,6.14-6.56,6.56a12.31,12.31,0,0,0-10.8,6.36l-52.31,69.43v36.41q.94,9.84,10.8,10.8c4,.42,6.13,2.54,6.56,6.56-.43,4-2.54,6.14-6.56,6.56a23.63,23.63,0,0,1-17.36-7.62c-4.45,4.87-10.16,7.41-17.36,7.62-4-.42-6.35-2.54-6.56-6.56.21-4,2.54-6.14,6.56-6.56q9.84-1,10.8-10.8V840.42L426.61,771c-2.12-4-5.72-6.14-10.58-6.36-4-.42-6.14-2.54-6.57-6.56.43-4,2.54-6.14,6.57-6.56a24.16,24.16,0,0,1,18,7.62q6-7.3,17.15-7.62c4,.42,6.14,2.54,6.56,6.56-.42,4-2.54,6.14-6.56,6.56-4.45.22-7.63,2.33-9.32,6.36l45,54.4L530.65,771c-1.69-4-4.87-6.14-9.31-6.36-4-.42-6.14-2.54-6.57-6.56.43-4,2.54-6.14,6.57-6.56,7.41.21,12.91,2.75,16.93,7.62a25.82,25.82,0,0,1,18.21-7.62c4,.42,6.14,2.54,6.56,6.56"/><path class="cls-12" d="M556.48,751.51c4,.42,6.14,2.54,6.56,6.56-.42,4-2.54,6.14-6.56,6.56a12.31,12.31,0,0,0-10.8,6.36l-52.31,69.43v36.41q.94,9.84,10.8,10.8c4,.42,6.13,2.54,6.56,6.56-.43,4-2.54,6.14-6.56,6.56a23.63,23.63,0,0,1-17.36-7.62c-4.45,4.87-10.16,7.41-17.36,7.62-4-.42-6.35-2.54-6.56-6.56.21-4,2.54-6.14,6.56-6.56q9.84-1,10.79-10.8V840.42L426.61,771c-2.12-4-5.72-6.14-10.58-6.36-4-.42-6.14-2.54-6.57-6.56.43-4,2.54-6.14,6.57-6.56a24.16,24.16,0,0,1,18,7.62q6-7.3,17.15-7.62c4,.42,6.14,2.54,6.56,6.56-.42,4-2.54,6.14-6.56,6.56-4.45.22-7.63,2.33-9.32,6.36l45,54.4L530.65,771c-1.69-4-4.87-6.14-9.31-6.36-4-.42-6.14-2.54-6.57-6.56.43-4,2.54-6.14,6.57-6.56,7.4.21,12.91,2.75,16.93,7.62a25.82,25.82,0,0,1,18.21-7.62m-35.14-3.34-.36,0c-5.56.59-8.94,4-9.53,9.53a4.09,4.09,0,0,0,0,.7c.59,5.56,4,9,9.54,9.53l.19,0a6.66,6.66,0,0,1,5.53,2.72l-39.86,49.06-41.07-49a6.62,6.62,0,0,1,5.54-2.75l.19,0c5.57-.58,8.95-4,9.54-9.53a4.09,4.09,0,0,0,0-.7c-.59-5.56-4-8.94-9.53-9.53l-.35,0h-.1c-7,.2-12.77,2.31-17.19,6.29A27.56,27.56,0,0,0,416,748.17l-.35,0c-5.57.59-8.95,4-9.54,9.53a4.09,4.09,0,0,0,0,.7c.59,5.56,4,9,9.54,9.53l.2,0c3.7.16,6.24,1.66,7.78,4.57a3.24,3.24,0,0,0,.21.35l53,68.57v35.2c-.52,4.88-2.85,7.17-7.78,7.65-5.8.61-9.28,4.14-9.58,9.71v.35c.3,5.56,3.77,9.09,9.55,9.7l.35,0h.1a27,27,0,0,0,17.26-6.33,27.51,27.51,0,0,0,17.25,6.33h.11l.35,0c5.56-.58,8.94-4,9.53-9.53a4.09,4.09,0,0,0,0-.7c-.59-5.56-4-9-9.53-9.53-5-.48-7.3-2.77-7.81-7.65V841.48l51.7-68.57.16-.25a9,9,0,0,1,8-4.69l.21,0c5.56-.58,8.94-4,9.53-9.53a4.09,4.09,0,0,0,0-.7c-.59-5.56-4-8.94-9.53-9.53l-.35,0a29.26,29.26,0,0,0-18,6.33c-4.41-4-10-6.13-17-6.33h-.09"/><path class="cls-8" d="M463.11,861.1l.07,0a20.4,20.4,0,0,0,1.94.69c.08-.15.14-.3.21-.45q-.27-.79-.48-1.59a6.61,6.61,0,0,1-1.74,1.32"/><path class="cls-8" d="M446.3,819.8l.81.45c2.78,1.58,5.6,3.09,8.39,4.66l3-8,4.66-13.13,6.66-18a8.88,8.88,0,0,1-.71-1.86c-1.23-4.91-4.43-9-7.63-13.14L444,818c.76.59,1.52,1.19,2.26,1.81"/><path class="cls-12" d="M469.84,785.78l-6.66,18-4.66,13.12-3,8c.92.52,1.84,1,2.75,1.57l.19.11,3.21-8.52,0-.06,4.66-13.13,6.09-16.42a6.72,6.72,0,0,1-2.57-2.68"/><path class="cls-12" d="M537,831.24h.15l-11.48-31.14c3.24,10.41,7.57,20.73,11.33,31.13"/><path class="cls-12" d="M444,818l17.46-47.21c-.81-1-1.61-2.09-2.39-3.16L441.23,816c.95.64,1.89,1.32,2.81,2"/><path class="cls-13" d="M1356.8,256.8a13.71,13.71,0,0,1-3.83-4.07,21.57,21.57,0,0,1-2.26-4.91,28,28,0,0,1-1.22-10.57,26.53,26.53,0,0,1,1-5.39,22.07,22.07,0,0,1,2.23-5.22,19.85,19.85,0,0,1,1.68-2.43,22,22,0,0,1,2.05-2.15,21,21,0,0,1,4.88-3.32,26,26,0,0,1,11.1-2.46,39,39,0,0,1,10.7,1.5,53.25,53.25,0,0,1,9.73,3.8c.78.37,1.53.79,2.29,1.2l2.13,1.2,2,1.12,2,1.05a62.29,62.29,0,0,0,16.54,6c.7.15,1.41.24,2.12.35s1.42.19,2.14.24c1.44.14,2.89.21,4.4.23.78,0,1.42,0,2.12,0s1.39-.08,2.09-.15a35.14,35.14,0,0,0,4.11-.64c5.38-1.18,10.21-3.55,13.11-7.76a18.5,18.5,0,0,0,2.9-7.42,24.24,24.24,0,0,0,.35-4.28,22.9,22.9,0,0,0-.35-4.24,17.66,17.66,0,0,0-1.2-3.92,14.37,14.37,0,0,0-2.12-3.36,13,13,0,0,0-6.56-4.11,11.76,11.76,0,0,0-1.93-.38,11.54,11.54,0,0,0-1.94-.11c-.33,0-.63,0-1,.05s-.67.07-1,.12a18.39,18.39,0,0,0-2,.4,13.89,13.89,0,0,0-6.37,3.53,10.67,10.67,0,0,0-2,2.65,13,13,0,0,0-1.18,3.16,19,19,0,0,0-.5,3.64c0,.32,0,.64,0,1s0,.63,0,1.06l0,2.39.11,9.58.06,9.57v9.58l0,9.58-.17,19.15-.18,19.15,0,4.79c0,1.61,0,3.1-.08,5a40,40,0,0,1-2,10.71,33.82,33.82,0,0,1-5.15,9.84,30.55,30.55,0,0,1-8.31,7.59,31.47,31.47,0,0,1-5,2.51c-.87.35-1.76.63-2.64.91s-1.79.5-2.69.67a35.82,35.82,0,0,1-5.41.72c-.91.07-1.8,0-2.7.07s-1.85-.05-2.77-.15a32.14,32.14,0,0,1-5.49-1,30.66,30.66,0,0,1-14.11-8.64,32.38,32.38,0,0,1-6-9.2,34.16,34.16,0,0,1-2.59-10.53,35.66,35.66,0,0,1,0-5.37,34.91,34.91,0,0,1,.78-5.34,31.22,31.22,0,0,1,4.33-10,29.8,29.8,0,0,1,7.63-7.88,34.24,34.24,0,0,1,9.75-4.77,35.48,35.48,0,0,1,5.29-1.19l1.35-.18,1.36-.12,1.36-.06,1.21-.05q4.79-.16,9.57-.28c6.39-.15,12.77-.17,19.15-.2l38.31-.14c12.76,0,25.53-.1,38.3,0l4.79,0h2.17a11.25,11.25,0,0,0,1.62-.16,4.93,4.93,0,0,0,2.14-.85,2.72,2.72,0,0,0,.94-1.46,5.11,5.11,0,0,0,.24-1.3,6.27,6.27,0,0,0,0-.73,4.16,4.16,0,0,0,0-.62,2.89,2.89,0,0,0-.69-1.66,3.76,3.76,0,0,0-1.82-1.08,6.22,6.22,0,0,0-1.35-.25l-.36,0h-.28a5.7,5.7,0,0,0-.58.06,5.46,5.46,0,0,0-4,3.17,17.26,17.26,0,0,0-1.55,7.33,38.06,38.06,0,0,0,.53,8.1,17.47,17.47,0,0,0,1.13,3.64,11.92,11.92,0,0,0,.91,1.68,8.68,8.68,0,0,0,.56.79c.1.13.2.26.31.38l.15.17.06.08s.06.06,0,.07a1.58,1.58,0,1,1-.92,3l-.26,0-.21,0-.4-.07-.75-.19a10,10,0,0,1-1.4-.57,11.66,11.66,0,0,1-2.49-1.67,15.72,15.72,0,0,1-3.56-4.67,21.52,21.52,0,0,1-1.83-5.34,27.56,27.56,0,0,1-.57-5.38,31.87,31.87,0,0,1,.38-5.54,21.73,21.73,0,0,1,.65-2.86,18.63,18.63,0,0,1,1.09-2.9,15.69,15.69,0,0,1,4-5.34,14.39,14.39,0,0,1,6.33-3.09,13.29,13.29,0,0,1,1.79-.25c.3,0,.63,0,.92,0h.83a16.46,16.46,0,0,1,3.37.51,13.54,13.54,0,0,1,6.35,3.67,12.23,12.23,0,0,1,2.23,3.24,13.29,13.29,0,0,1,1.11,3.61,15.73,15.73,0,0,1,.17,1.78v.84c0,.26,0,.54,0,.81a15.11,15.11,0,0,1-.55,3.42,13.15,13.15,0,0,1-1.53,3.48,12.64,12.64,0,0,1-2.62,3,13.59,13.59,0,0,1-3.24,2,16.76,16.76,0,0,1-3.29,1,20.54,20.54,0,0,1-3.13.38l-.75,0h-1.86l-4.79,0c-12.77.06-25.54,0-38.3,0l-38.31-.15c-6.38,0-12.76,0-19.15-.19-3.19-.08-6.38-.17-9.57-.29l-1.19,0h-1l-1,0-1,.06a27.1,27.1,0,0,0-4.1.64,24.41,24.41,0,0,0-7.58,3.18,19.56,19.56,0,0,0-8.78,13.17,29.94,29.94,0,0,0-.47,4.15,30.68,30.68,0,0,0,.13,4.19,26.07,26.07,0,0,0,2.17,7.94,23.92,23.92,0,0,0,4.58,6.67,21.71,21.71,0,0,0,14.18,6.53c.66.06,1.33,0,2,.06s1.4,0,2.08-.11a27,27,0,0,0,4.06-.62c.66-.14,1.3-.35,2-.53s1.26-.43,1.87-.7a22.17,22.17,0,0,0,3.48-1.83,21.7,21.7,0,0,0,5.65-5.37,24.43,24.43,0,0,0,3.55-7.11,30,30,0,0,0,1.35-8.09c0-1.3,0-3,0-4.58l0-4.79-.18-19.15-.18-19.15,0-9.58v-9.58l.06-9.57.1-9.58,0-2.39c0-.37,0-.87,0-1.34a13.67,13.67,0,0,1,.08-1.42,25.82,25.82,0,0,1,1.13-5.77,20,20,0,0,1,4.7-8,19.13,19.13,0,0,1,2.36-2.06,20.06,20.06,0,0,1,5.34-2.83,24.57,24.57,0,0,1,5.62-1.25,26.36,26.36,0,0,1,2.8-.13c.47,0,.93,0,1.39,0s1,0,1.44.12a22.78,22.78,0,0,1,5.5,1.33,22.39,22.39,0,0,1,5,2.63,18.62,18.62,0,0,1,2.19,1.77c.36.32.68.66,1,1s.64.69.93,1.06a23.87,23.87,0,0,1,4.73,9.88,34,34,0,0,1,.76,5.26c.07.88.08,1.75.1,2.63s0,1.76-.07,2.66a30.07,30.07,0,0,1-.83,5.4,25,25,0,0,1-2,5.29,24.09,24.09,0,0,1-7.6,8.59,31.19,31.19,0,0,1-10.13,4.55,40.44,40.44,0,0,1-5.32,1c-.89.1-1.78.18-2.68.23s-1.86.06-2.67,0A56.66,56.66,0,0,1,1416,242a58.3,58.3,0,0,1-10-2.83,77.89,77.89,0,0,1-9.26-4.25l-2.21-1.21-2.15-1.28-2-1.2c-.63-.37-1.27-.74-1.92-1.09a47.15,47.15,0,0,0-7.94-3.48,30.29,30.29,0,0,0-8.15-1.58,17.77,17.77,0,0,0-7.53,1.2,14,14,0,0,0-3.15,1.84,12.64,12.64,0,0,0-2.52,2.64,18.7,18.7,0,0,0-3,7.35,24.39,24.39,0,0,0-.15,8.44,14.28,14.28,0,0,0,3.17,7.42l.07.08a1.84,1.84,0,0,1-.11,2.6,1.86,1.86,0,0,1-2.28.18"/><path class="cls-13" d="M1506.25,233.14c.44-5.52,1.09-11.17.8-16.23a22.67,22.67,0,0,0-.46-3.61,14.49,14.49,0,0,0-.45-1.61c-.2-.55-.42-1.12-.67-1.64a14.38,14.38,0,0,0-4-5.31,12.88,12.88,0,0,0-5.84-2.64,15.23,15.23,0,0,0-3.39-.25,20.24,20.24,0,0,0-3.54.42,19.19,19.19,0,0,0-6.49,2.6,15,15,0,0,0-4.64,4.67,16.44,16.44,0,0,0-2.27,6.37c-.1.58-.14,1.19-.2,1.78s-.07,1.18-.07,1.95c0,1.44,0,2.86-.06,4.32,0,5.8,0,11.64,0,17.47l0,35-.14,35,0,8.76,0,4.38V328c0,.42,0,.85-.07,1.26a40.45,40.45,0,0,1-1.87,9.63,35.16,35.16,0,0,1-4.33,9,26.1,26.1,0,0,1-7.36,7.22,25.31,25.31,0,0,1-9.62,3.66,28.09,28.09,0,0,1-5,.37,31.86,31.86,0,0,1-4.93-.42,24,24,0,0,1-5-1.36,19.38,19.38,0,0,1-4.6-2.59,18,18,0,0,1-3.69-3.82,20.75,20.75,0,0,1-2.43-4.54,26.45,26.45,0,0,1-1.66-9.59c0-.4,0-.8,0-1.19s0-.83.07-1.26a18,18,0,0,1,.45-2.51,19.16,19.16,0,0,1,1.82-4.62,14.53,14.53,0,0,1,3.13-4,10,10,0,0,1,4.72-2.39,1.71,1.71,0,0,1,.86,3.31h0c-2.16.72-3.73,2.7-4.71,5a15,15,0,0,0-1,3.65,11.61,11.61,0,0,0-.16,1.83c0,.3,0,.54,0,.92s0,.67.07,1a22.4,22.4,0,0,0,1.92,7.46,12.69,12.69,0,0,0,4.49,5.31,14.68,14.68,0,0,0,6.66,2.23,24.91,24.91,0,0,0,7.52-.39,17.25,17.25,0,0,0,6.52-2.8,18.67,18.67,0,0,0,4.84-5.2,26.25,26.25,0,0,0,3.06-6.86,32.11,32.11,0,0,0,1.25-7.56c0-.31,0-.62,0-.93v-1l0-2.18,0-4.38-.1-8.76c-.13-11.68-.29-23.36-.37-35l-.09-17.53V241.41c0-5.85.08-11.69.18-17.57,0-1.46.06-3,.09-4.44,0-.69.06-1.6.11-2.43s.16-1.71.31-2.56a26.32,26.32,0,0,1,3.7-10,24.2,24.2,0,0,1,7.68-7.56,28.62,28.62,0,0,1,9.74-3.75,29.5,29.5,0,0,1,5.16-.52,24.67,24.67,0,0,1,5.32.48,21.94,21.94,0,0,1,9.86,4.69,23.43,23.43,0,0,1,6.36,8.65c.35.8.65,1.6.93,2.43a23.58,23.58,0,0,1,.69,2.62,30.05,30.05,0,0,1,.57,5.08,37.59,37.59,0,0,1-1,9.51,42.43,42.43,0,0,1-1.3,4.47c-.26.73-.53,1.45-.84,2.16-.16.36-.31.72-.48,1.07s-.33.69-.54,1.09a2.86,2.86,0,0,1-5.39-1.55Z"/><path class="cls-14" d="M431.25,338.61h74a36,36,0,1,0,0-71.94H480.89a6.62,6.62,0,0,1,0-13.23h19.54a21.78,21.78,0,1,0,0-43.55H431.25Zm74,13.23H424.64a6.62,6.62,0,0,1-6.62-6.62V203.28a6.62,6.62,0,0,1,6.62-6.62h75.78a35,35,0,0,1,23.87,60.6,49.2,49.2,0,0,1-19,94.58"/><path class="cls-14" d="M505.32,323.45H453a6.61,6.61,0,1,1,0-13.22h52.53a7.58,7.58,0,0,0-.21-15.16H453a6.61,6.61,0,0,1-6.61-6.61V231.67a6.61,6.61,0,0,1,6.61-6.62h43.06a6.62,6.62,0,0,1,0,13.23H459.64v43.55h45.68a20.81,20.81,0,1,1,0,41.62"/></g></g></svg>