<?xml version="1.0" standalone="no"?>
<!DOCTYPE svg PUBLIC "-//W3C//DTD SVG 20010904//EN"
 "http://www.w3.org/TR/2001/REC-SVG-20010904/DTD/svg10.dtd">
<svg version="1.0" xmlns="http://www.w3.org/2000/svg"
 width="700.000000pt" height="700.000000pt" viewBox="0 0 700.000000 700.000000"
 preserveAspectRatio="xMidYMid meet">
<metadata>
Created by potrace 1.14, written by Peter Selinger 2001-2017
</metadata>
<g transform="translate(0.000000,700.000000) scale(0.100000,-0.100000)"
fill="#000000" stroke="none">
<path d="M3380 6981 c-73 -23 -127 -59 -181 -118 -36 -41 -332 -626 -1611
-3184 -945 -1890 -1571 -3154 -1578 -3184 -37 -165 44 -352 191 -438 99 -58
83 -57 1054 -57 727 0 900 3 943 14 136 36 250 150 286 288 8 31 13 87 11 133
l-3 79 -161 321 c-89 176 -216 426 -282 555 -66 129 -180 352 -252 495 l-132
260 0 75 c1 57 6 85 22 116 51 96 328 290 554 387 96 41 251 91 319 102 25 4
54 9 65 11 256 50 593 -2 839 -128 219 -112 431 -311 563 -528 99 -163 178
-368 218 -564 35 -177 39 -212 39 -416 1 -195 -5 -273 -30 -410 -4 -19 -8 -42
-10 -50 -3 -20 -30 -138 -49 -220 -17 -74 -22 -158 -10 -210 23 -107 121 -228
223 -278 l57 -27 1117 -3 c1115 -2 1116 -2 1173 19 88 33 164 102 209 191 l38
75 -4 124 -3 124 -389 775 c-484 966 -1942 3872 -2406 4796 -190 380 -354 701
-363 714 -52 75 -120 126 -212 161 -53 20 -184 20 -245 0z"/>
<path d="M2778 2335 c-1 -1 -30 -6 -63 -10 -71 -8 -241 -63 -322 -103 -64 -33
-102 -85 -97 -134 2 -25 125 -270 494 -993 59 -116 178 -349 265 -520 87 -171
166 -323 175 -340 47 -84 195 -94 262 -18 54 60 166 332 213 513 44 174 68
445 51 595 -13 118 -18 152 -22 167 -3 9 -7 25 -9 37 -11 60 -43 156 -76 234
-150 352 -431 560 -776 572 -50 2 -93 2 -95 0z"/>
</g>
</svg>
