<?xml version="1.0" encoding="utf-8"?>
<!-- Generator: Adobe Illustrator 25.0.1, SVG Export Plug-In . SVG Version: 6.00 Build 0)  -->
<svg version="1.1" id="Capa_1" xmlns="http://www.w3.org/2000/svg" xmlns:xlink="http://www.w3.org/1999/xlink" x="0px" y="0px"
	 viewBox="0 0 1000 1000" style="enable-background:new 0 0 1000 1000;" xml:space="preserve">
<style type="text/css">
	.st0{fill:#282B30;}
</style>
<g>
	<g>
		<path class="st0" d="M407.6,666.1c-23.3,0-47.6,6.5-71,18.9c-8.5,4.5-11.8,15-7.4,23.5l130,254.9c4.4,8.6,12.9,13,21.3,13
			c8.2,0,16.3-4.1,20.8-12.4c12.2-22.3,21.7-46.7,27.7-72.4c13.4-56.6,8.8-111.5-13.1-154.6c-18.7-37.2-49-61.6-85.2-68.7
			C423.2,666.8,415.5,666.1,407.6,666.1"/>
		<path class="st0" d="M500,0c-20.5,0-41.1,10.6-51.7,32L6.2,916.3c-19.2,38.5,8.7,83.7,51.7,83.7h240.6c43.1,0,71.1-45.5,51.6-83.9
			L240.7,699.7c-7.8-15.4-4.1-34.1,9-45.3c47.8-41.2,103.8-63.3,158-63.3c12.7,0,25.3,1.2,37.7,3.6C504.7,606.5,553.6,645,583,703.2
			c29.9,58.9,36.6,132.1,19.1,205.8c-1.3,5.7-2.7,11.3-4.4,16.8C587,963,614.6,1000,653.2,1000h288.9c43,0,71-45.2,51.7-83.7
			L551.7,32C541.1,10.6,520.5,0,500,0"/>
	</g>
</g>
</svg>
